<?xml version="1.0" encoding="UTF-8" standalone="no"?>
<!-- Created with Inkscape (http://www.inkscape.org/) -->

<svg
   width="210mm"
   height="297mm"
   viewBox="0 0 210 297"
   version="1.1"
   id="svg1"
   xml:space="preserve"
   inkscape:version="1.3.2 (091e20e, 2023-11-25, custom)"
   sodipodi:docname="logo5.svg"
   xmlns:inkscape="http://www.inkscape.org/namespaces/inkscape"
   xmlns:sodipodi="http://sodipodi.sourceforge.net/DTD/sodipodi-0.dtd"
   xmlns="http://www.w3.org/2000/svg"
   xmlns:svg="http://www.w3.org/2000/svg"><sodipodi:namedview
     id="namedview1"
     pagecolor="#505050"
     bordercolor="#eeeeee"
     borderopacity="1"
     inkscape:showpageshadow="0"
     inkscape:pageopacity="0"
     inkscape:pagecheckerboard="0"
     inkscape:deskcolor="#505050"
     inkscape:document-units="mm"
     inkscape:zoom="0.69219276"
     inkscape:cx="-42.618186"
     inkscape:cy="750.51348"
     inkscape:window-width="1920"
     inkscape:window-height="991"
     inkscape:window-x="-9"
     inkscape:window-y="-9"
     inkscape:window-maximized="1"
     inkscape:current-layer="g3" /><defs
     id="defs1"><rect
       x="274.28511"
       y="530.1824"
       width="172.54039"
       height="36.078861"
       id="rect2" /><rect
       x="277.37938"
       y="533.0885"
       width="257.57318"
       height="36.737687"
       id="rect1" /></defs><g
     inkscape:label="Layer 1"
     inkscape:groupmode="layer"
     id="layer1"><path
       id="path4"
       style="fill:#550000;stroke-width:0.264583"
       d="m 18.131193,197.94089 c 0.03085,0.0272 0.06396,0.0515 0.09405,0.0796 0.04637,0.0536 0.102107,0.0968 0.161231,0.13591 l 0.819588,0.001 c 0.0012,-6.2e-4 0.0024,-0.001 0.0036,-0.002 8.97e-4,-0.004 0.0027,-0.007 0.0036,-0.0109 -0.09797,-0.008 -0.196055,-0.0143 -0.293523,-0.0263 -0.345126,-0.0767 -0.557335,-0.12552 -0.788582,-0.17725 z m 4.360974,0.22066 c 0.02452,0.0383 0.04679,0.0773 0.06976,0.11627 0.02676,-0.0388 0.04949,-0.0787 0.0801,-0.11627 z" /><text
       xml:space="preserve"
       transform="scale(0.26458333)"
       id="text2"
       style="white-space:pre;shape-inside:url(#rect2);display:inline;fill:#ffe6d5" /><g
       id="g3"
       style="fill:#550000"><path
         id="path8"
         style="display:inline;fill:#ac9393;stroke-width:0.251481"
         d="M 98.269971,94.233525 A 58.013855,55.998066 0 0 0 40.255941,150.23166 58.013855,55.998066 0 0 0 68.8821,198.38221 c 0.145391,4e-5 0.290794,-2e-5 0.43615,0 0.476927,4e-5 0.953476,-10e-6 1.430403,0 0.411428,1e-5 0.823127,0 1.23455,0 h 1.163753 1.149284 0.567924 c 0.974637,0 1.687158,0.25476 2.152324,0.63045 0.150692,-0.034 0.314721,-0.0574 0.502811,-0.0574 h 1.057817 0.762227 0.612366 0.57981 c 0.02838,0.0109 0.187267,-0.0472 0.378788,-0.0884 -0.117124,-0.0279 0.749589,-0.0701 0.559656,-0.0791 0.232511,-0.0713 0.46627,-0.13976 0.702282,-0.19896 0.304696,-0.0507 0.60028,-0.12577 0.898653,-0.20257 0.325015,-0.0584 0.644841,-0.13329 0.967383,-0.20309 0.214998,-0.0954 0.718934,-0.03 0.898653,-0.16795 0.224793,-0.1243 0.46647,-0.21077 0.713135,-0.27957 0.247418,-0.0637 0.502325,-0.086 0.756543,-0.10076 0.204963,-0.0109 0.410284,-0.013 0.615466,-0.015 0.193528,-0.001 0.38731,-0.002 0.580844,-0.002 0.191489,-2.3e-4 0.382634,4e-5 0.574125,0 0.191173,-3e-5 0.382435,0 0.573608,0 0.250869,-1e-5 0.50154,0 0.752409,0 0.267019,2.5e-4 0.534113,-0.002 0.800985,-0.001 0.26687,0.001 0.533729,0.006 0.800468,0.0186 0.669583,0.0568 1.341293,0.0857 2.01073,0.14315 0.70262,0.0799 1.408744,0.12098 2.113049,0.18138 0.827721,0.0663 1.65254,0.14699 2.475301,0.25942 0.816947,0.13376 1.641718,0.20328 2.464963,0.28318 1.10606,0.12966 2.20819,0.29345 3.31298,0.43615 1.34056,0.17804 2.68615,0.31459 4.02301,0.51935 1.32914,0.23569 2.66225,0.44376 4.00389,0.59324 1.03437,0.10402 2.06688,0.22275 3.10317,0.30645 0.78248,0.057 1.56103,0.15592 2.34353,0.21342 0.6488,0.0465 1.299,0.0693 1.94923,0.0832 0.56096,0.0105 1.12205,0.0146 1.6831,0.0176 0.46399,0.002 0.92766,0.003 1.39165,0.003 0.18071,1.8e-4 0.36137,4.4e-4 0.54208,5.2e-4 0.18068,8e-5 0.33857,0.0221 0.48473,0.0537 A 58.013855,55.998066 0 0 0 156.28348,150.23166 58.013855,55.998066 0 0 0 98.269971,94.233525 Z M 90.253923,199.52787 c -0.250366,3.3e-4 -0.50057,0.004 -0.750859,0.001 h -0.752409 c -0.191059,1e-5 -0.382033,-3e-5 -0.573092,0 -0.190694,4e-5 -0.381362,2.7e-4 -0.572058,5.1e-4 -0.188397,0 -0.376947,7e-5 -0.56534,0.002 -0.175602,0.002 -0.35115,0.004 -0.526583,0.0119 -0.126314,0.007 -0.253391,0.0137 -0.377238,0.0408 -0.189521,0.0341 -0.350418,0.15978 -0.5302,0.22118 -0.383252,0.13059 -0.774935,0.19426 -1.175122,0.24856 -0.297567,0.0589 -0.591166,0.13712 -0.890902,0.18552 -0.303919,0.0748 -0.604942,0.1575 -0.914672,0.2067 -0.141822,0.0328 -0.281074,0.076 -0.420647,0.11783 0.686154,0.0592 1.372553,0.11619 2.057756,0.1788 3.789618,0.36339 7.576886,0.74843 11.371399,1.05781 2.913978,0.21586 5.825844,0.47132 8.731764,0.77722 1.46583,0.15606 2.93007,0.32058 4.39043,0.52141 0.55703,0.081 1.11486,0.15526 1.67587,0.20206 0.29485,0.0254 0.59048,0.0359 0.88625,0.0419 0.2842,0.005 0.56841,0.006 0.85266,0.007 0.37006,-0.009 0.73808,-0.0717 1.10743,-0.10387 0.57878,-0.0365 1.1493,-0.14419 1.72186,-0.23099 0.68549,-0.0701 1.36184,-0.18329 2.04018,-0.30231 0.41787,-0.0765 0.84063,-0.11728 1.26246,-0.16485 -0.49669,-0.0154 -0.9931,-0.0356 -1.4888,-0.0713 -0.78693,-0.0585 -1.56965,-0.15524 -2.35645,-0.21394 -1.05561,-0.0857 -2.10794,-0.20611 -3.16156,-0.31265 -1.36765,-0.15322 -2.72704,-0.36181 -4.08192,-0.60306 -1.32144,-0.20399 -2.65247,-0.3352 -3.97754,-0.51315 -1.08481,-0.14013 -2.16668,-0.3006 -3.252512,-0.42943 -0.848126,-0.0824 -1.69766,-0.15481 -2.53938,-0.29197 -0.791057,-0.10858 -1.584862,-0.18466 -2.380733,-0.24856 -0.704712,-0.061 -1.411048,-0.1014 -2.114083,-0.1819 -0.647405,-0.0571 -1.29757,-0.0808 -1.945101,-0.13798 -0.249965,-0.0143 -0.500493,-0.0169 -0.750858,-0.0165 z m -13.873572,2.39934 c -0.01572,0.006 -0.02483,0.0166 -0.04082,0.0227 a 58.013855,55.998066 0 0 0 0.165882,0.0548 c -0.04486,-0.024 -0.08601,-0.0503 -0.125057,-0.0775 z m 0.615983,0.23926 a 58.013855,55.998066 0 0 0 21.273637,4.06332 58.013855,55.998066 0 0 0 11.379149,-1.08934 c -0.38522,-0.0434 -0.76966,-0.0921 -1.15342,-0.14831 -1.44032,-0.1981 -2.88477,-0.36021 -4.33048,-0.51418 -2.89101,-0.30458 -5.787285,-0.5582 -8.686293,-0.77308 -3.800698,-0.31011 -7.594736,-0.69506 -11.39052,-1.05937 -2.223564,-0.20329 -4.451776,-0.4286 -6.686413,-0.4408 v 5.2e-4 c -0.148164,-8.1e-4 -0.280702,-0.0165 -0.40566,-0.0388 z" /><path
         id="path1"
         style="fill:#550000"
         d="m 86.799353,102.3152 c -0.05477,0.16465 0.988339,1.56898 2.317688,3.12074 1.701658,1.98638 2.378699,2.96876 2.287199,3.31918 -0.08169,0.31302 0.0078,0.49764 0.241329,0.49764 0.20424,0 0.371037,-0.12527 0.371037,-0.27802 0,-0.43037 -0.753496,-1.78811 -1.123446,-2.02416 -0.39473,-0.25186 -1.869668,-2.19573 -1.666048,-2.19573 0.16724,0 3.044885,3.01305 3.798734,3.97753 0.3487,0.44617 0.478257,0.91109 0.387057,1.38906 -0.14513,0.76079 -1.69182,2.30632 -2.30787,2.30632 -0.660719,0 -1.864608,-0.85262 -2.528527,-1.79059 -0.35877,-0.50686 -0.892758,-1.17436 -1.187008,-1.48363 -1.126089,-1.18354 -2.805118,-3.34036 -2.600358,-3.34036 0.11787,0 0.871534,0.62436 1.674833,1.38699 0.803279,0.76341 0.578131,0.47198 -0.500228,-0.64802 -1.877472,-1.94996 -2.923355,-2.51196 -1.974556,-1.06091 1.107003,1.69297 4.879633,6.60899 5.586222,7.27914 0.43613,0.41362 1.518875,0.96423 2.454114,1.24798 1.433128,0.43482 1.948426,0.78139 3.587894,2.41329 1.591789,1.58444 1.87125,1.98742 1.65623,2.39004 -0.32993,0.61771 -0.804591,0.6348 -0.589111,0.0212 0.13273,-0.37797 0.09762,-0.40228 -0.192753,-0.1323 -0.67832,0.63069 -1.042314,0.37664 -1.042314,-0.7276 0,-0.58209 -0.08901,-1.05822 -0.197921,-1.05833 -0.10894,-1.1e-4 -0.172693,0.65889 -0.141593,1.46451 0.06078,1.57602 -0.08271,1.58069 -1.071253,0.0341 -0.263859,-0.41281 -0.539265,-0.69073 -0.612365,-0.61753 -0.07305,0.0732 0.292551,0.76676 0.81287,1.54099 0.520319,0.77422 0.946195,1.52317 0.946195,1.6645 0,0.14132 -0.440925,0.70947 -0.979785,1.26245 l -0.979785,1.00511 -0.331246,-0.59738 c -0.312649,-0.56402 -0.33302,-0.56784 -0.37052,-0.0682 -0.0218,0.29105 -0.01715,0.76729 0.01085,1.05833 0.04052,0.42173 -0.111829,0.34116 -0.750858,-0.39687 -0.441,-0.50931 -0.806354,-0.77722 -0.812354,-0.59532 -0.0059,0.1819 0.110569,0.33073 0.258899,0.33073 0.14833,0 0.40263,0.29277 0.56534,0.65061 0.2369,0.52101 0.208369,0.78454 -0.14366,1.32292 -0.53774,0.82238 -1.06094,0.89328 -0.81287,0.11007 0.119849,-0.37826 0.08251,-0.50321 -0.114205,-0.38138 -0.16078,0.0996 -0.292489,0.33833 -0.292489,0.5302 0,0.19188 -0.178012,0.49684 -0.395841,0.678 -0.21783,0.18115 -0.396359,0.59658 -0.396359,0.92294 0,0.32636 -0.237553,0.89641 -0.528133,1.26659 -0.673959,0.85857 -2.160253,4.16047 -1.872754,4.16047 0.11942,0 0.417649,-0.52667 0.663009,-1.17047 0.24537,-0.64381 0.793534,-1.65093 1.218013,-2.23811 l 0.771529,-1.06763 2.184363,-0.077 c 2.093318,-0.0737 2.153748,-0.0927 1.439189,-0.45889 -0.590149,-0.30239 -0.85095,-0.31623 -1.25057,-0.0661 -0.706209,0.44194 -0.837195,0.39549 -0.526066,-0.18707 0.23249,-0.43535 0.19179,-0.48344 -0.30024,-0.3545 -0.525279,0.13765 -0.509828,0.0731 0.202572,-0.84336 l 0.771529,-0.99219 1.848466,0.12971 c 1.016539,0.0718 1.686231,0.0683 1.488281,-0.008 -0.30388,-0.11666 -0.30388,-0.17566 0,-0.37879 0.23561,-0.1575 0.107793,-0.18193 -0.369486,-0.0708 -0.57556,0.13399 -0.697303,0.0875 -0.579293,-0.22066 0.16116,-0.42082 1.225143,-0.99167 1.848983,-0.99167 0.210999,0 0.383955,-0.11906 0.383955,-0.26458 0,-0.14552 -0.07533,-0.26458 -0.167431,-0.26458 -0.50002,0 -2.390806,0.69082 -2.690275,0.98288 -0.1919,0.18715 -0.483976,0.34003 -0.649056,0.34003 -0.16508,0 0.229529,-0.54352 0.876949,-1.20768 0.976599,-1.00188 1.299986,-1.18302 1.898075,-1.06556 0.53919,0.1059 0.791093,0.01 0.999422,-0.38034 0.15319,-0.28683 0.423037,-0.51928 0.599447,-0.51728 0.20145,0.003 0.174179,0.0969 -0.07338,0.25373 -0.267279,0.16934 0.0071,0.21221 0.852145,0.13281 1.330155,-0.12495 1.411295,-0.0748 2.950205,1.82159 1.33532,1.64554 5.06116,6.4133 5.96553,7.63364 0.5081,0.68562 1.28,1.42688 1.71566,1.64745 1.49703,0.75794 2.50982,0.39563 2.50682,-0.89659 -0.003,-1.03599 -0.64658,-1.81927 -4.49326,-5.46581 -4.39604,-4.16731 -6.84633,-6.74144 -6.85333,-7.19905 -0.003,-0.22247 -0.18851,-0.29033 -0.5116,-0.18758 -0.40435,0.1286 -0.479103,0.0571 -0.371554,-0.35502 0.08773,-0.33619 -0.01389,-0.54737 -0.291455,-0.60617 -0.361389,-0.0766 -0.323619,-0.24028 0.249081,-1.0821 0.850888,-1.25071 1.180768,-1.27063 5.342828,-0.32349 0.32675,0.0743 0.59376,0.022 0.59376,-0.11628 0,-0.13823 -0.7424,-0.42787 -1.65003,-0.64337 -0.90763,-0.21549 -1.47201,-0.40399 -1.25419,-0.41909 0.35205,-0.0244 0.35205,-0.0584 0,-0.30541 -0.31003,-0.21752 -0.26713,-0.24115 0.19793,-0.11007 0.34941,0.0985 0.59427,0.0509 0.59427,-0.11524 0,-0.15528 0.089,-0.26835 0.19793,-0.25115 0.48704,0.0771 0.85834,-0.0528 0.85834,-0.30075 0,-0.26693 -0.46869,-0.23091 -1.95389,0.15037 -0.54719,0.14047 -0.71191,0.10974 -0.57825,-0.10697 0.1122,-0.18191 0.009,-0.30282 -0.25684,-0.30282 -0.79863,0 0.17577,-1.07156 1.33894,-1.47226 0.57562,-0.1983 1.1817,-0.54594 1.34669,-0.77205 0.1871,-0.25636 0.47814,-0.34234 0.77308,-0.22892 0.32471,0.12486 0.41323,0.0849 0.28215,-0.12765 -0.1061,-0.17203 -0.0476,-0.30954 0.13229,-0.30954 0.17801,0 0.25235,-0.072 0.16485,-0.15968 -0.0875,-0.0877 -0.82031,0.14402 -1.62832,0.5147 -1.30776,0.59993 -1.83365,0.62765 -1.27434,0.0672 0.10702,-0.10728 0.19592,-0.39024 0.19792,-0.6289 0.002,-0.32105 0.49712,-0.54657 1.90169,-0.86662 2.05734,-0.46879 3.7492,-1.34714 2.92178,-1.5167 -0.2533,-0.0519 -0.80045,0.14847 -1.21594,0.44493 -0.41548,0.29647 -1.27745,0.60527 -1.91565,0.68627 -0.91744,0.11648 -1.05004,0.0884 -0.63252,-0.13436 0.29044,-0.15495 0.66567,-0.57417 0.83354,-0.93173 0.27306,-0.58163 0.24523,-0.65361 -0.26406,-0.68161 -0.31308,-0.0171 -0.65441,-0.0186 -0.7581,-0.003 -0.1036,0.0155 -0.12084,-0.1481 -0.0382,-0.3638 0.0826,-0.2157 0.25654,-0.32648 0.38654,-0.24598 0.13001,0.0805 0.23668,-0.0723 0.23668,-0.33952 0,-0.26725 0.18477,-0.75041 0.41083,-1.07383 0.2261,-0.32342 0.29343,-0.58808 0.14986,-0.58808 -0.30907,0 -1.35289,1.40951 -1.35289,1.82676 0,0.42379 -0.28516,0.35472 -0.71468,-0.17311 -0.33184,-0.40782 -0.35782,-0.25031 -0.21963,1.32188 0.15702,1.78648 -0.27648,3.37447 -0.92087,3.37447 -0.31512,0 -0.31333,-0.0964 0.0279,-1.58027 0.22187,-0.96487 0.20015,-1.23669 -0.11782,-1.46967 -0.21451,-0.15718 -0.44675,-0.69577 -0.51625,-1.19735 -0.0695,-0.50158 -0.10688,0.002 -0.0827,1.11983 0.0242,1.11763 -0.0171,1.95109 -0.092,1.85209 -0.15307,-0.20225 -0.57534,-0.33168 -1.69189,-0.51935 -0.5264,-0.0885 -0.706386,-0.0353 -0.578776,0.17156 0.10181,0.16507 0.389161,0.30024 0.638721,0.30024 0.638165,0 1.626055,0.74519 1.878955,1.41749 0.2542,0.67575 -0.34568,2.0221 -0.90072,2.0221 -0.20432,0 -0.447119,-0.24014 -0.540019,-0.5333 -0.09285,-0.29313 -0.270498,-0.46975 -0.394808,-0.39275 -0.12431,0.077 -0.302008,-0.10009 -0.394808,-0.39325 -0.16876,-0.53281 -0.661458,-0.7487 -0.661458,-0.28991 0,0.54279 0.34237,1.08004 0.68833,1.08004 0.539149,0 0.507242,2.72996 -0.03721,3.18275 -0.33707,0.28032 -0.498816,0.23632 -0.960665,-0.26045 -0.42159,-0.45346 -0.474935,-0.64693 -0.221175,-0.80408 0.193579,-0.1199 0.246306,-0.34962 0.125057,-0.54622 -0.1507,-0.24433 -0.274831,-0.16136 -0.443901,0.29662 -0.23481,0.63607 -0.235023,0.63574 -1.141532,-0.41806 -0.49866,-0.57967 -0.956609,-1.29181 -1.017509,-1.58285 -0.06093,-0.29104 -0.241666,-1.16787 -0.401526,-1.9482 -0.21741,-1.06119 -0.573078,-1.73295 -1.410767,-2.66547 -1.785678,-1.98781 -6.624159,-6.22427 -6.733439,-5.89577 z m 24.806757,0.0827 c -0.12125,-5.8e-4 -0.29039,0.11318 -0.4284,0.30231 -0.18401,0.25217 -0.42147,0.37095 -0.52813,0.26407 -0.10666,-0.10688 -0.15434,-0.0157 -0.10594,0.20257 0.0484,0.21828 -0.0466,0.37218 -0.21084,0.34158 -0.16423,-0.0306 -0.50925,0.17776 -0.76688,0.46302 -0.55284,0.61215 -0.36469,0.65754 0.61702,0.14883 0.91377,-0.47351 1.77925,-1.42778 1.52549,-1.68207 -0.027,-0.027 -0.0619,-0.0401 -0.10232,-0.0403 z m -5.23741,0.67903 c -0.0341,0.0311 -0.0805,0.0995 -0.14004,0.20206 -0.16258,0.28 -0.37212,1.25354 -0.46612,2.16317 -0.15627,1.51293 -0.13222,1.6331 0.28525,1.40922 0.251,-0.13461 0.85018,-0.25335 1.3317,-0.26355 0.72902,-0.0155 0.78751,-0.0566 0.34778,-0.24598 -0.31188,-0.1343 -0.37491,-0.23498 -0.15399,-0.24598 0.20541,-0.0102 0.29742,-0.0951 0.20412,-0.18862 -0.0933,-0.0935 -0.35341,-0.017 -0.57826,0.17002 -0.22485,0.18681 -0.47622,0.27277 -0.55862,0.19017 -0.0824,-0.0826 0.33598,-0.47258 0.93017,-0.86662 0.59421,-0.39404 1.08056,-0.73734 1.08056,-0.76274 0,-0.11591 -1.50374,0.088 -1.94303,0.26355 -0.44625,0.17831 -0.47713,0.0904 -0.33745,-0.96739 0.0929,-0.70317 0.10034,-0.95055 -0.002,-0.85731 z m -21.187853,0.48369 c -0.01448,-5.2e-4 -0.01567,0.0159 -0.0031,0.0501 0.05852,0.15945 1.147952,1.55354 2.42104,3.098 1.273089,1.54447 2.372029,2.8081 2.442229,2.8081 0.276449,0 0.08382,-0.29674 -0.994772,-1.53479 -0.617189,-0.70843 -1.408566,-1.6351 -1.759065,-2.05931 -1.251818,-1.5151 -2.004939,-2.35844 -2.106332,-2.36213 z m 26.014433,1.46916 c -0.12371,0.003 -0.39546,0.0929 -0.72037,0.26717 -0.28492,0.15282 -0.44858,0.39095 -0.36328,0.52917 0.19445,0.31527 0.41323,0.31195 0.9157,-0.0134 0.35205,-0.22798 0.35205,-0.25758 0,-0.26458 -0.35205,-0.007 -0.35205,-0.0366 0,-0.26458 0.26692,-0.17284 0.29166,-0.25671 0.16795,-0.25374 z m -23.270931,0.91519 1.443323,1.52136 c 1.340758,1.41337 1.593184,1.64281 1.593184,1.44642 0,-0.0413 -0.683234,-0.72596 -1.518253,-1.52135 z m 2.432926,3.92535 c -0.05463,-0.0208 -0.143222,0.0281 -0.279052,0.14107 -0.19489,0.1621 -0.451668,0.20657 -0.570508,0.0987 -0.1188,-0.10788 -0.130308,-0.0475 -0.02584,0.13436 0.274019,0.47719 0.950846,0.40685 0.950846,-0.0987 0,-0.16455 -0.02082,-0.25468 -0.07545,-0.27543 z m 16.333375,0.54518 c -0.0705,0.0108 -0.16956,0.0648 -0.28371,0.15968 -0.21783,0.18116 -0.39584,0.37077 -0.39584,0.42117 0,0.0504 0.17801,0.0228 0.39584,-0.061 0.21783,-0.0838 0.39584,-0.27288 0.39584,-0.42065 0,-0.0774 -0.0417,-0.11002 -0.11213,-0.0992 z m -1.99988,1.77922 c -0.21783,0.005 0.0199,0.1687 0.52813,0.36484 v 5.1e-4 c 1.20551,0.46476 1.67964,0.45808 0.65991,-0.01 -0.43566,-0.1999 -0.97021,-0.36054 -1.18804,-0.35554 z m -10.794693,0.23255 c 0.14525,0 0.191086,0.11906 0.101286,0.26458 -0.08975,0.14552 -0.282144,0.26458 -0.427364,0.26458 -0.14525,0 -0.190469,-0.11906 -0.100769,-0.26458 0.08975,-0.14552 0.281628,-0.26458 0.426847,-0.26458 z m 0.170533,0.5364 c 0.28818,-0.0487 0.61211,0.22261 0.955497,0.80512 0.525589,0.89163 0.508238,0.99025 -0.146761,0.84336 -0.50485,-0.11322 -1.329248,-1.24788 -1.084688,-1.49294 0.08747,-0.0876 0.179891,-0.13932 0.275952,-0.15554 z m 3.568774,3.26802 c 0.02776,-0.0278 0.0643,0.009 0.106454,0.11472 0.0763,0.19099 0.06703,0.41956 -0.02067,0.50746 -0.08778,0.0879 -0.149993,-0.0684 -0.138493,-0.34727 0.0063,-0.15411 0.02495,-0.2471 0.05271,-0.27491 z m 0.532784,3.17344 c 0.260647,0.0485 0.449585,0.24037 0.449585,0.55449 0,0.22285 0.13376,0.3754 0.29714,0.339 0.163369,-0.0364 0.351562,0.0827 0.418062,0.26458 0.06657,0.1819 0.0218,0.31014 -0.09922,0.28474 -0.12102,-0.0254 -0.724847,-0.0921 -1.342037,-0.14779 -1.250219,-0.11284 -1.364067,-0.29836 -0.604097,-0.98754 0.287429,-0.26066 0.619919,-0.35595 0.880566,-0.30748 z m 3.326932,2.06344 c 0.3582,0.11706 1.3472,1.04762 1.3472,1.32395 0,0.12016 -0.178,0.21808 -0.39584,0.21808 -0.21783,0 -0.39636,-0.16386 -0.39636,-0.36432 0,-0.20046 -0.1807,-0.51511 -0.40204,-0.69918 -0.22129,-0.18408 -0.33973,-0.39759 -0.26303,-0.47439 0.0207,-0.0207 0.0589,-0.0209 0.11007,-0.004 z m 1.47743,1.78904 c 0.24935,-0.0384 0.8234,0.32604 1.42523,0.94672 0.49236,0.50776 1.06368,0.92294 1.26969,0.92294 0.20596,0 0.30956,0.10558 0.22996,0.23461 -0.0796,0.12903 0.0323,0.3819 0.24857,0.56172 0.21624,0.17987 0.39274,0.24412 0.39274,0.14314 0,-0.10097 0.17853,-0.005 0.39635,0.21343 0.21783,0.21828 0.39585,0.5842 0.39585,0.81287 0,0.22868 0.14869,0.41713 0.33021,0.42013 0.18153,0.003 0.6099,0.30018 0.95188,0.66146 0.34199,0.36128 0.79446,0.6568 1.00562,0.6568 0.21159,0 0.31003,0.1201 0.21963,0.26665 -0.0904,0.14655 0.0215,0.338 0.24856,0.4253 0.22704,0.0873 0.4129,0.38391 0.4129,0.65939 0,0.27547 0.11884,0.50075 0.26406,0.50075 0.14522,0 0.26028,0.20835 0.25528,0.46302 -0.009,0.51445 -0.78341,1.67559 -0.78341,1.17512 0,-0.17333 -0.1276,-0.31523 -0.28319,-0.31523 -0.1556,0 -0.43301,-0.14883 -0.6165,-0.33073 -0.18348,-0.1819 -0.64331,-0.56173 -1.02164,-0.84439 -0.37833,-0.28266 -0.63923,-0.59231 -0.58033,-0.68781 0.0589,-0.0955 -0.12644,-0.42474 -0.41186,-0.73174 -0.28542,-0.30699 -0.51935,-0.74146 -0.51935,-0.96583 0,-0.22437 -0.18814,-0.40825 -0.41858,-0.40825 -0.23045,0 -0.55386,-0.35719 -0.7183,-0.79375 -0.16445,-0.43656 -0.45118,-0.79375 -0.63717,-0.79375 -0.18596,0 -0.30812,-0.0915 -0.27182,-0.2036 0.0363,-0.11209 -0.0811,-0.37999 -0.26045,-0.59531 -1.0171,-1.22129 -1.65416,-2.07486 -1.65416,-2.21589 0,-0.10775 0.0471,-0.16497 0.13023,-0.17777 z m -6.137097,1.34462 c -0.39463,0.003 -0.403988,0.0416 -0.06615,0.26045 h 5.17e-4 c 0.497642,0.32226 0.527616,0.32255 0.527616,0 0,-0.14552 -0.207847,-0.26245 -0.461987,-0.26045 z m 39.077717,25.15816 -0.72605,0.0264 0.65991,0.21188 c 0.36304,0.11651 0.68975,0.22372 0.72605,0.23822 0.0363,0.0145 0.0661,-0.0927 0.0661,-0.23822 0,-0.14551 -0.32669,-0.25273 -0.72605,-0.23823 z m -3.26905,0.005 c -0.19143,-9.3e-4 -0.39234,0.0143 -0.55656,0.046 v -5.2e-4 c -0.32843,0.0633 -0.12199,0.11741 0.45889,0.12041 0.58087,0.003 0.84982,-0.049 0.59738,-0.11524 -0.12622,-0.0329 -0.30828,-0.0497 -0.49971,-0.0506 z m -7.11636,5.1e-4 c -0.0917,-0.004 -0.19616,0.013 -0.29146,0.0512 -0.21063,0.0845 -0.14841,0.1475 0.15917,0.1602 0.27835,0.0115 0.43445,-0.0511 0.34675,-0.13901 -0.0439,-0.0439 -0.12274,-0.0686 -0.21446,-0.0724 z m -7.63519,0.002 c -0.11965,0 -0.23946,0.0186 -0.33022,0.0553 -0.18153,0.0734 -0.0328,0.13333 0.33022,0.13333 0.36304,0 0.51174,-0.0599 0.33021,-0.13333 -0.0908,-0.0367 -0.21057,-0.0553 -0.33021,-0.0553 z m 22.28081,0.0238 -0.76171,0.10025 0.92397,0.29352 c 0.75279,0.23922 -0.0547,0.30362 -4.35632,0.34572 -2.90441,0.0284 -5.75619,0.0787 -6.33708,0.11214 -4.34609,0.24973 -73.1499,0.14817 -71.422001,-0.10542 1.331127,-0.19537 1.034586,-0.4189 -0.855245,-0.64441 -1.548471,-0.18476 -2.778002,0.20533 -2.334741,0.74053 0.345247,0.41686 2.49532,0.67705 6.094201,0.73845 1.379594,0.0235 2.211516,0.11833 1.848466,0.21033 l -0.660424,0.16743 0.609265,0.33176 c 0.335098,0.18261 1.167016,0.30125 1.848466,0.26355 0.681449,-0.0376 3.77855,-0.0452 6.882267,-0.0171 4.468845,0.0404 5.590025,0.11946 5.387785,0.38137 -0.14045,0.1819 -0.340164,0.56607 -0.443384,0.85369 -0.16651,0.46398 -0.112252,0.45222 0.479557,-0.1049 0.55546,-0.52292 0.734673,-0.57163 1.072803,-0.29042 0.24731,0.2057 0.760582,0.28048 1.312581,0.19068 0.71462,-0.1162 0.875761,-0.0678 0.761711,0.22996 -0.11193,0.29228 0.115364,0.37649 1.005623,0.36949 1.068889,-0.008 1.113897,-0.0359 0.637688,-0.39687 -0.57554,-0.43622 -0.230562,-0.51086 0.693497,-0.14987 0.922109,0.36023 2.268268,1.69686 2.124418,2.10944 -0.07626,0.21877 0.01403,0.31656 0.22686,0.24546 0.194684,-0.065 0.625815,0.2827 0.957564,0.77256 0.63574,0.93875 0.730473,1.28117 0.405143,1.46348 -0.108909,0.0611 -0.04975,0.0743 0.131775,0.03 0.18152,-0.0443 0.333481,0.0645 0.338481,0.24185 0.0045,0.17733 0.296486,0.91309 0.649056,1.63452 0.35258,0.72142 0.594435,1.35832 0.537435,1.41542 -0.18501,0.18539 -0.679505,-0.24339 -0.540536,-0.46871 0.07414,-0.12021 -0.0218,-0.27893 -0.212906,-0.35243 -0.19112,-0.0735 -0.48368,0.0849 -0.65009,0.35192 -0.25673,0.41194 -0.213663,0.49816 0.283187,0.56896 0.401369,0.0572 0.559611,0.23618 0.502812,0.56947 -0.06536,0.3833 0.03238,0.4498 0.461987,0.31316 0.31826,-0.10122 0.544669,-0.0559 0.544669,0.10904 0,0.15533 -0.227869,0.28215 -0.506429,0.28215 -0.786959,0 -1.34152,0.28533 -1.34152,0.68988 0,0.20271 -0.127597,0.36845 -0.283187,0.36845 -0.155589,0 -0.104658,0.1786 0.113172,0.39688 0.550699,0.55184 0.962215,0.49529 0.962215,-0.13229 0,-0.58264 0.03239,-0.60141 0.638204,-0.36846 0.22971,0.0883 0.417545,0.36238 0.417545,0.60875 0,0.24636 0.144965,0.59315 0.321945,0.7705 0.253039,0.2536 0.151026,0.28812 -0.476974,0.16226 -0.544609,-0.10915 -0.902826,-0.034 -1.126546,0.23616 -0.48563,0.58635 -0.04011,0.70428 1.132747,0.30024 1.113879,-0.38373 1.469161,-0.31312 1.469161,0.29094 0,0.50662 0.430619,0.48769 0.627869,-0.0274 0.11889,-0.31045 0.275587,-0.34437 0.653707,-0.14159 0.2735,0.14664 0.567273,0.1967 0.652673,0.1111 0.08537,-0.0856 0.902984,-0.20857 1.816943,-0.27337 0.91396,-0.0648 2.493325,-0.30047 3.509864,-0.52399 1.016549,-0.22352 1.996632,-0.41372 2.178161,-0.42272 0.18152,-0.009 0.330213,-0.12996 0.330213,-0.2682 0,-0.13826 0.225905,-0.19177 0.502295,-0.11937 0.624902,0.16376 3.237292,-0.28877 3.577042,-0.6196 0.13796,-0.13433 0.46945,-0.24443 0.73691,-0.24443 0.26747,0 0.74482,-0.24076 1.0604,-0.53537 0.31557,-0.29461 0.72626,-0.47726 0.9126,-0.40566 0.18634,0.0716 0.52802,-0.15866 0.75913,-0.51211 0.23111,-0.35345 0.65461,-0.71744 0.94154,-0.80874 0.28693,-0.0913 1.07823,-0.68897 1.75855,-1.3286 0.68031,-0.63963 1.65284,-1.36134 2.16111,-1.60352 0.50827,-0.24218 0.98614,-0.53402 1.06144,-0.64854 0.0753,-0.11453 0.45687,-0.25136 0.84801,-0.30386 0.39115,-0.0525 0.79399,-0.17832 0.89503,-0.27956 0.10105,-0.10125 0.36584,-0.0359 0.5886,0.14469 0.32307,0.26227 0.36487,0.26174 0.2067,-0.002 -0.12826,-0.21393 -0.0294,-0.3391 0.27957,-0.3545 0.2627,-0.0131 0.0708,-0.14113 -0.42633,-0.28422 l -0.90382,-0.25993 1.16789,-1.05472 c 1.22273,-1.10384 4.61757,-2.88754 5.44101,-2.85874 0.38805,0.0136 0.36619,0.0626 -0.11472,0.25632 -0.61687,0.24847 -0.77088,0.64455 -0.3514,0.90434 0.13351,0.0827 0.43089,-0.0377 0.66042,-0.26769 0.59076,-0.59198 0.51793,-0.19569 -0.1111,0.60565 -0.29044,0.37 -0.52435,0.86516 -0.51935,1.10019 0.007,0.37809 0.0483,0.37454 0.35605,-0.0315 0.19127,-0.25244 0.42527,-0.38161 0.51987,-0.28681 0.0945,0.0948 0.17156,-0.0262 0.17156,-0.26871 0,-0.24254 0.17853,-0.4408 0.39636,-0.4408 0.21783,0 0.39691,-0.0893 0.39791,-0.19844 0.001,-0.10914 0.29799,-0.33615 0.65991,-0.50436 0.36192,-0.16823 0.65835,-0.22157 0.65835,-0.11834 0,0.10324 -0.95077,1.12022 -2.11253,2.25981 -1.16177,1.13959 -2.11202,2.17778 -2.11202,2.30683 0,0.12905 -0.29737,0.37013 -0.66042,0.53589 -0.36306,0.16576 -0.65991,0.41986 -0.65991,0.56482 0,0.14497 -1.15862,1.4482 -2.57452,2.89595 -2.47677,2.53248 -5.81523,5.06431 -7.10551,5.38882 -0.33966,0.0854 -0.61753,0.32097 -0.61753,0.52348 0,0.2025 -0.10542,0.36845 -0.23409,0.36845 -0.12868,0 -0.43113,0.41673 -0.67232,0.92604 -0.34056,0.71918 -0.5981,0.92718 -1.15238,0.93018 -0.56116,0.003 -0.62869,0.0597 -0.31729,0.26458 0.34203,0.22497 0.34439,0.29382 0.0171,0.50488 -0.32209,0.20766 -0.3247,0.31015 -0.0171,0.68161 0.29165,0.35221 0.29618,0.47777 0.0238,0.64648 -0.45204,0.27996 0.89341,0.6239 1.58285,0.40462 0.56929,-0.18106 0.66657,0.13652 0.18862,0.61547 -0.42599,0.42689 -1.80029,0.41652 -1.70739,-0.0129 0.0394,-0.1819 -0.0466,-0.0628 -0.19121,0.26458 -0.27204,0.61609 -0.68884,0.8069 -0.68884,0.31523 0,-0.15375 -0.095,-0.22166 -0.21084,-0.14986 -0.11585,0.0717 -0.37289,0.0302 -0.57103,-0.0925 -0.22254,-0.13782 -0.50241,-0.081 -0.73225,0.14934 -0.20466,0.20508 -0.58981,0.37311 -0.85628,0.37311 -0.6903,0 -0.38375,0.99552 0.35088,1.13946 0.31928,0.0626 0.13416,0.12698 -0.42323,0.14728 -1.01676,0.037 -1.3519,0.441 -0.52761,0.63562 v -5.2e-4 c 0.91905,0.21699 2.73359,-0.0126 3.17706,-0.40204 0.24943,-0.21902 0.85774,-0.60368 1.35186,-0.85473 0.49412,-0.25104 1.20507,-0.83057 1.57975,-1.28829 0.98296,-1.2008 2.31331,-2.43055 4.12274,-3.81062 2.06527,-1.5752 2.2258,-1.72559 1.5844,-1.4857 -0.47414,0.17733 -0.49037,0.15066 -0.15606,-0.26097 0.2048,-0.25211 0.5218,-0.40092 0.70435,-0.33072 0.18254,0.0702 0.39739,-0.0436 0.47749,-0.2527 0.0801,-0.20909 0.47614,-0.38951 0.88005,-0.40101 0.40392,-0.0115 0.58563,-0.0811 0.40411,-0.15451 -0.53735,-0.21728 -0.37553,-0.66864 0.17673,-0.493 0.37591,0.11956 0.62936,-0.0468 0.98134,-0.64389 0.26092,-0.44261 0.56718,-0.8046 0.68109,-0.8046 0.54171,0 0.12517,-0.4013 -0.45113,-0.4346 -0.40477,-0.0234 -0.59149,0.0703 -0.48473,0.2434 0.10874,0.17629 0.01,0.21798 -0.26561,0.11214 -0.51385,-0.19759 -0.54258,-0.0787 -0.15555,0.64595 0.25597,0.47927 0.23178,0.50351 -0.2465,0.24702 -0.74851,-0.40142 -1.17668,-0.35343 -0.99839,0.11213 0.1098,0.28673 -0.0288,0.39688 -0.49971,0.39688 -0.35849,0 -0.65164,0.12734 -0.65164,0.28267 0,0.16606 0.24487,0.21322 0.59428,0.11472 0.46506,-0.13109 0.50796,-0.10693 0.19792,0.11059 -0.21783,0.15282 -0.60792,0.27964 -0.86661,0.28164 -0.25869,0.002 -0.53342,0.16987 -0.61082,0.37207 -0.0868,0.22652 -0.36232,0.313 -0.7183,0.2253 -0.3174,-0.0782 -0.4885,-0.0464 -0.38085,0.0708 0.1077,0.11724 0.063,0.37315 -0.0987,0.56844 -0.21777,0.26297 -0.21294,0.35502 0.0181,0.35502 0.78094,0 -0.10014,0.4868 -1.17305,0.64802 -0.69767,0.10484 -1.12852,0.29056 -1.03302,0.44545 0.0901,0.14606 0.34682,0.19504 0.57051,0.10904 0.33736,-0.12972 0.35019,-0.0877 0.0734,0.2465 -0.35195,0.42494 -1.46265,0.57501 -1.20871,0.16329 0.0814,-0.13191 -0.0882,-0.17802 -0.37724,-0.10232 -0.28899,0.0757 -0.45517,0.25199 -0.36897,0.39171 0.0862,0.13974 -0.0933,0.0977 -0.39894,-0.0935 -0.52383,-0.32782 -0.78685,-1.05079 -0.3576,-0.98289 0.10891,0.0172 0.53751,0.0172 0.9524,0 0.55537,-0.0231 0.71391,-0.13624 0.60203,-0.4284 -0.1024,-0.26739 0.0127,-0.39687 0.35243,-0.39687 0.56705,0 1.02305,-0.51734 0.48473,-0.54984 -0.28377,-0.0171 -0.28354,-0.0461 0.001,-0.16019 0.19073,-0.0765 0.4881,0.054 0.66042,0.2899 0.28393,0.38875 0.34432,0.37921 0.64544,-0.10439 0.28535,-0.45827 0.26643,-0.53667 -0.13229,-0.55397 -0.25537,-0.0111 -0.0483,-0.18058 0.45992,-0.37672 0.50827,-0.19614 0.74596,-0.36929 0.52813,-0.38499 -0.31899,-0.023 -0.30332,-0.0988 0.0801,-0.39016 0.36189,-0.27498 0.39331,-0.40077 0.13178,-0.52348 -0.18923,-0.0888 0.0823,-0.11112 0.60306,-0.0501 1.05296,0.12346 1.42937,-0.0442 1.42937,-0.63562 0,-0.22294 0.19281,-0.36482 0.43977,-0.32402 0.29102,0.048 0.41622,-0.0862 0.37052,-0.39687 -0.0731,-0.49703 0.53856,-1.10883 1.12293,-1.12293 0.54294,-0.0131 1.17695,-0.73203 0.77101,-0.87436 -0.23446,-0.0822 -0.18635,-0.27464 0.1695,-0.67645 0.27354,-0.30887 0.5988,-0.49858 0.72295,-0.42168 0.1241,0.0769 0.1548,-0.0464 0.0677,-0.27388 -0.11535,-0.30116 -0.0423,-0.36906 0.26975,-0.24908 0.30419,0.11697 0.38525,0.0515 0.27905,-0.22583 -0.0901,-0.2353 0.16924,-0.65949 0.65267,-1.06712 0.51331,-0.43282 0.68542,-0.72372 0.47698,-0.80822 -0.19817,-0.0803 -0.15345,-0.14026 0.1142,-0.15296 0.24203,-0.0115 0.48944,-0.16936 0.54984,-0.35088 0.0679,-0.20415 0.22927,-0.10577 0.42375,0.25838 0.26159,0.48982 0.25037,0.56383 -0.0682,0.44132 -0.28195,-0.10841 -0.34496,-0.002 -0.23926,0.40307 0.079,0.30254 0.27828,0.55197 0.44287,0.55397 0.1646,0.002 0.12068,0.13037 -0.0971,0.28474 -0.35205,0.24952 -0.35205,0.26733 0,0.16123 0.21783,-0.0657 0.36769,-0.24992 0.33279,-0.40928 -0.0349,-0.15937 0.1984,-0.42994 0.51832,-0.60151 l 0.58188,-0.31213 -0.65061,-0.27078 -0.65009,-0.27078 0.59376,-0.10491 c 0.32674,-0.0576 0.59428,-0.22292 0.59428,-0.3669 0,-0.14398 0.1108,-0.19325 0.24598,-0.10955 0.13519,0.0837 0.33159,0.0128 0.43667,-0.15762 0.11502,-0.18639 0.0769,-0.2391 -0.0956,-0.13229 -0.15762,0.0976 -0.36116,0.0567 -0.45216,-0.0909 -0.091,-0.14761 0.24657,-0.65538 0.74982,-1.12861 0.50324,-0.47323 1.16462,-1.42241 1.4702,-2.10943 0.30559,-0.68703 0.78432,-1.37165 1.0635,-1.52136 0.27917,-0.14972 2.17727,-0.27233 4.21834,-0.27233 3.07158,0 3.95079,-0.0913 5.10047,-0.52917 1.02293,-0.3896 2.02863,-0.52907 3.81579,-0.52917 1.47453,-8e-5 2.49685,-0.11371 2.60552,-0.2899 0.29795,-0.48309 -0.5432,-1.08307 -1.36632,-0.97462 z m -59.246,0.23564 c -0.358926,0 -0.717836,0.0143 -0.99012,0.0429 -0.54458,0.0571 -0.09904,0.10387 0.99012,0.10387 1.089139,0 1.53469,-0.0468 0.99012,-0.10387 -0.272289,-0.0285 -0.631194,-0.0429 -0.99012,-0.0429 z m 40.39753,0 c -0.40678,0 -0.8133,0.014 -1.12189,0.0419 -0.61719,0.0557 -0.11247,0.10129 1.12189,0.10129 1.23437,0 1.73961,-0.0456 1.12242,-0.10129 -0.3086,-0.0279 -0.71563,-0.0419 -1.12242,-0.0419 z m -26.403552,5.2e-4 c -0.263211,0 -0.526374,0.0152 -0.726054,0.0455 -0.39936,0.0606 -0.07265,0.11007 0.726054,0.11007 0.798699,0 1.125413,-0.0495 0.726054,-0.11007 -0.199675,-0.0303 -0.462843,-0.0455 -0.726054,-0.0455 z m -20.880896,0.001 c -0.717849,-1.3e-4 -1.446236,0.0123 -2.01228,0.0372 -1.132099,0.0498 -0.276099,0.0906 1.902209,0.0909 2.178308,4e-4 3.104491,-0.0398 2.058272,-0.0899 -0.523104,-0.025 -1.230352,-0.0381 -1.948201,-0.0382 z m -13.972274,0.004 c -0.119642,0 -0.238933,0.0186 -0.329696,0.0553 -0.181525,0.0734 -0.03336,0.13332 0.329696,0.13332 0.363047,0 0.511737,-0.0599 0.330213,-0.13332 -0.09076,-0.0367 -0.210571,-0.0553 -0.330213,-0.0553 z m 8.945707,0 c -0.14357,-0.002 -0.296847,0.0135 -0.425297,0.047 v 5.1e-4 c -0.256899,0.0671 -0.110615,0.12678 0.325045,0.13178 0.43569,0.005 0.645915,-0.0495 0.467155,-0.12196 -0.08938,-0.0363 -0.223333,-0.0556 -0.366903,-0.0574 z m 44.627765,1.58285 c 0.47857,2e-4 0.94686,0.0137 1.28933,0.0408 v 5.1e-4 c 0.68493,0.0543 0.0569,0.0978 -1.39526,0.0971 -1.4522,-6e-4 -2.01268,-0.0451 -1.24541,-0.0987 0.38364,-0.0269 0.87277,-0.04 1.35134,-0.0398 z m -10.58023,0.48059 c 2.38607,-0.0335 6.32996,0.14331 6.55257,0.36639 0.0863,0.0865 -0.21697,0.63012 -0.67386,1.20819 -0.80575,1.01944 -1.6001,3.06124 -1.6061,4.12637 -0.005,0.87697 -1.40249,4.15569 -1.83813,4.31188 -0.22502,0.0807 -0.72454,0.36516 -1.11001,0.63252 -0.38546,0.26736 -0.92002,0.48786 -1.18804,0.48886 -0.26803,0.001 -1.6161,0.28677 -2.99569,0.63458 -3.40724,0.85898 -4.372642,0.94776 -6.1004,0.56224 -3.817557,-0.85184 -5.611148,-2.65794 -7.401616,-7.45329 -0.642199,-1.71997 -2.25889,-3.55491 -3.660758,-4.1553 -0.845759,-0.36221 -0.128852,-0.3994 8.449613,-0.4377 5.155325,-0.023 9.610751,-0.10178 9.901201,-0.17518 0.25362,-0.0641 0.87586,-0.0984 1.67122,-0.10956 z m 12.21011,0.0233 c 0.81779,0.001 1.56476,0.0573 1.56476,0.16691 0,0.0941 -0.53504,0.74422 -1.18908,1.44487 -0.65403,0.70067 -1.32737,1.57819 -1.49654,1.95027 -0.16918,0.37208 -0.88373,1.03162 -1.5875,1.46555 v -5.2e-4 c -0.70378,0.43394 -1.31896,0.7891 -1.36736,0.7891 -0.0484,0 0.0159,-0.66532 0.14314,-1.47846 0.2646,-1.69083 1.30678,-3.93275 1.942,-4.17701 0.28397,-0.10903 1.17278,-0.16206 1.99058,-0.16071 z m 4.778,1.37201 c -0.39762,-0.0974 -1.20486,0.12641 -1.29863,0.47594 -0.0862,0.3213 -0.0587,0.32842 0.1447,0.0377 0.15633,-0.22351 0.46313,-0.29142 0.81235,-0.18035 0.34685,0.11031 0.56069,0.0635 0.56069,-0.12196 0,-0.11106 -0.0866,-0.1789 -0.21911,-0.21135 z m -37.259225,0.75085 c -0.134564,0.032 -0.288839,0.16386 -0.368969,0.37311 -0.09813,0.25628 -0.02008,0.33446 0.235644,0.23616 0.21044,-0.0809 0.382406,-0.25348 0.382406,-0.38344 0,-0.19018 -0.114516,-0.25784 -0.249081,-0.22583 z m 35.068145,0.0181 c -0.13832,-0.001 -0.22532,0.10747 -0.30851,0.32453 -0.0927,0.24302 0.10007,0.35192 0.62219,0.35192 0.67743,0 0.70958,-0.0361 0.30489,-0.34417 -0.29004,-0.22059 -0.48014,-0.33107 -0.61857,-0.33228 z m -8.75657,0.0662 c 0.0479,0.0183 0.0775,0.0657 0.0775,0.13849 0,0.14552 -0.11884,0.3385 -0.26406,0.4284 -0.14522,0.0899 -0.26407,0.0442 -0.26407,-0.10129 0,-0.14553 0.11885,-0.33798 0.26407,-0.42788 0.0726,-0.045 0.13869,-0.056 0.18655,-0.0377 z m -25.886278,0.69918 c -0.698419,0 -0.694077,0.36652 0.0093,0.82889 0.39463,0.25942 0.781913,0.40069 0.860413,0.31419 0.07852,-0.0865 -0.0061,-0.21043 -0.187586,-0.27543 -0.181529,-0.065 -0.329695,-0.28685 -0.329695,-0.493 0,-0.20616 -0.158804,-0.37465 -0.352434,-0.37465 z m 25.990658,0.18293 c 0.17444,0.0854 0.12576,0.49491 -0.14159,1.2852 -0.10089,0.29825 -0.41342,0.68655 -0.69453,0.86248 -0.76702,0.48 -0.67863,-0.33465 0.12351,-1.13844 0.3587,-0.35946 0.50824,-0.67828 0.34364,-0.73328 -0.16437,-0.0549 -0.11191,-0.16599 0.12041,-0.25529 0.10794,-0.0415 0.19042,-0.0491 0.24856,-0.0207 z m -30.904569,0.14263 c -0.102901,-0.01 -0.19325,-0.008 -0.266651,0.007 -0.23652,0.0502 0.131089,0.3603 0.873849,0.7369 0.705169,0.35753 1.239741,0.76915 1.188041,0.91467 -0.05168,0.14547 -0.198092,0.22967 -0.325562,0.18707 -0.1275,-0.0426 -0.14408,0.19555 -0.03669,0.52917 0.1074,0.33362 0.503216,1.82707 0.879016,3.31866 0.3758,1.49159 0.775191,2.71198 0.887801,2.71198 0.1126,0 0.133609,-0.35719 0.04651,-0.79375 -0.11422,-0.57232 -0.05713,-0.79602 0.204639,-0.80202 0.247049,-0.005 0.215191,-0.094 -0.09922,-0.2775 -0.25413,-0.14832 -0.459853,-0.47242 -0.457853,-0.71985 0.0032,-0.35713 0.05143,-0.37497 0.233577,-0.0868 0.1262,0.19969 0.391308,0.30833 0.589628,0.24133 0.22438,-0.0759 0.02848,-0.29466 -0.518831,-0.57929 -0.58867,-0.30615 -0.829137,-0.58928 -0.727088,-0.85577 0.08386,-0.21899 0.02172,-0.64253 -0.137976,-0.94154 -0.222509,-0.41671 -0.2067,-0.59659 0.06718,-0.7705 0.19655,-0.12478 0.238754,-0.23277 0.09353,-0.23977 -0.14522,-0.007 -0.05952,-0.16821 0.190686,-0.35864 0.42713,-0.32514 0.422395,-0.38111 -0.07751,-0.91881 -0.545046,-0.58625 -1.886774,-1.23347 -2.607076,-1.30276 z m 44.202469,0.46819 c 0.0799,0 -0.003,0.23812 -0.18448,0.52917 -0.18138,0.29104 -0.50183,0.52916 -0.71211,0.52916 -0.27226,0 -0.21914,-0.15235 0.18449,-0.52916 0.31175,-0.29105 0.6322,-0.52917 0.7121,-0.52917 z m -5.93194,0.008 c -0.21783,0 -0.57437,0.11525 -0.7922,0.25631 -0.35205,0.22798 -0.35205,0.25632 0,0.25632 0.21783,0 0.57437,-0.11525 0.7922,-0.25632 0.35205,-0.22798 0.35205,-0.25631 0,-0.25631 z m -31.979441,0.25631 c -0.145249,0 -0.190469,0.11906 -0.100769,0.26459 0.08975,0.14552 0.281628,0.26458 0.426848,0.26458 0.14525,0 0.190985,-0.11906 0.101285,-0.26458 -0.08975,-0.14553 -0.282144,-0.26459 -0.427364,-0.26459 z m -0.364835,0.80202 c -0.14522,0 -0.08606,0.11525 0.131775,0.25632 0.264029,0.17093 0.286175,0.25745 0.06615,0.26045 -0.497239,0.006 -0.396444,0.47714 0.131775,0.61546 0.802994,0.21028 0.845517,0.19262 0.671277,-0.2806 -0.187064,-0.50805 -0.590923,-0.85163 -1.000972,-0.85163 z m -2.599842,0.84646 c -0.07151,0.0586 0.02824,0.24973 0.276986,0.59221 0.26091,0.35922 0.645449,0.65646 0.854728,0.66146 0.26826,0.006 0.229555,-0.10649 -0.131775,-0.38034 -0.397059,-0.30095 -0.423101,-0.39458 -0.116272,-0.41548 0.26966,-0.0184 0.227258,-0.0994 -0.132291,-0.25424 -0.437095,-0.18822 -0.679864,-0.26218 -0.751376,-0.20361 z m 32.859498,0 c -0.53106,0.0118 -1.89319,0.83506 -1.77147,1.1529 0.0825,0.21552 -0.007,0.29272 -0.23771,0.20412 -0.2037,-0.0783 -0.63377,0.0425 -0.95602,0.26872 -0.50065,0.3514 -0.52437,0.435 -0.16123,0.57464 0.25004,0.0961 0.36104,0.33143 0.26924,0.57103 -0.12308,0.32142 -0.0392,0.30671 0.39894,-0.0692 0.30537,-0.26197 0.48419,-0.59146 0.39739,-0.73225 -0.0966,-0.1567 0.12206,-0.18551 0.56379,-0.0744 0.47247,0.11884 0.66304,0.0862 0.5519,-0.0941 -0.0934,-0.15135 0.001,-0.27492 0.20981,-0.27492 0.20862,0 0.53453,-0.18766 0.7245,-0.41703 0.28623,-0.34562 0.28057,-0.45811 -0.0336,-0.65732 -0.32339,-0.20511 -0.32429,-0.24143 -0.005,-0.24443 0.20577,-0.002 0.30462,-0.074 0.21962,-0.15916 -0.0352,-0.0353 -0.0941,-0.0503 -0.17001,-0.0486 z m -1.09916,0.73277 c 0.15379,0 0.27957,0.11906 0.27957,0.26459 0,0.14552 -0.0523,0.26458 -0.11627,0.26458 -0.064,0 -0.19029,-0.11906 -0.28009,-0.26458 -0.0898,-0.14553 -0.037,-0.26459 0.11679,-0.26459 z m -28.905731,0.03 c -0.134622,0 -0.419969,0.0783 -0.782898,0.23461 -0.3482,0.14993 -0.393442,0.23184 -0.132292,0.24184 0.21783,0.008 0.57437,-0.10078 0.7922,-0.24184 0.241324,-0.15628 0.257611,-0.23461 0.12299,-0.23461 z m 27.484631,0.76377 c 0.064,0 0.11627,0.11906 0.11627,0.26459 0,0.14552 -0.12578,0.26458 -0.27957,0.26458 -0.15384,0 -0.20597,-0.11906 -0.11627,-0.26458 0.0898,-0.14553 0.21557,-0.26459 0.27957,-0.26459 z m -26.023222,0.28732 c -0.21783,0.008 -0.633531,0.11678 -0.923975,0.24185 l -0.528133,0.22738 0.528133,0.0145 c 0.290444,0.008 0.706145,-0.10079 0.923975,-0.24185 0.35205,-0.22794 0.35205,-0.25475 0,-0.24185 z m 25.111642,0.50643 c -0.16076,0 -0.29197,0.19145 -0.29197,0.4253 0,0.25819 -0.1474,0.36852 -0.37465,0.28112 -0.20581,-0.0791 -0.44247,0.0349 -0.52607,0.25321 -0.0842,0.22 -0.2884,0.31197 -0.45837,0.20671 -0.1907,-0.1181 -0.23547,-0.0742 -0.11834,0.11576 0.11493,0.18634 0.002,0.31271 -0.28939,0.32401 -0.42639,0.0166 -0.42125,0.043 0.0501,0.24598 0.72478,0.31208 0.98551,0.31317 0.79427,0.003 -0.0923,-0.14964 0.0128,-0.19461 0.24598,-0.10491 0.24008,0.0923 0.47429,-0.0177 0.56999,-0.26768 0.0894,-0.23338 0.27567,-0.42426 0.41393,-0.42426 0.1383,0 0.16666,0.13739 0.063,0.3054 -0.12144,0.19693 -0.0718,0.2332 0.13953,0.10232 0.22048,-0.13656 0.24068,-0.29018 0.0615,-0.46974 -0.14657,-0.14683 -0.2034,-0.43146 -0.1266,-0.632 0.0768,-0.20055 0.008,-0.36432 -0.15297,-0.36432 z m 8.81704,0.008 c -0.14522,0 -0.0996,0.10455 0.10128,0.23203 0.26864,0.17049 0.14656,0.28 -0.46199,0.41393 -0.45498,0.10014 -0.82733,0.29134 -0.82733,0.4253 0,0.32693 0.11942,0.31147 1.25832,-0.16537 0.77182,-0.32315 0.89484,-0.46131 0.58549,-0.65732 -0.21546,-0.13651 -0.51054,-0.24857 -0.65577,-0.24857 z m -36.60087,0.81959 c -0.14357,-0.002 -0.296847,0.014 -0.425297,0.0475 -0.2569,0.0671 -0.110615,0.12678 0.325044,0.13178 0.43569,0.005 0.645915,-0.0495 0.467155,-0.12196 -0.08938,-0.0363 -0.223332,-0.0556 -0.366902,-0.0574 z m -0.254248,0.52814 c -0.09173,-0.004 -0.19615,0.013 -0.291455,0.0512 -0.21063,0.0845 -0.148427,0.14698 0.159163,0.15968 0.27835,0.0115 0.434449,-0.0511 0.346749,-0.13901 -0.04387,-0.044 -0.122731,-0.068 -0.214457,-0.0718 z m 36.661848,0.0103 c -0.0858,0.0327 -0.18382,0.0982 -0.27337,0.18862 -0.25883,0.26131 -0.22852,0.2919 0.14779,0.14831 0.26034,-0.0994 0.40738,-0.24716 0.32608,-0.32866 -0.0406,-0.0407 -0.11469,-0.041 -0.2005,-0.008 z m -33.038814,0.3731 c -0.108971,-0.0188 -0.236615,-0.007 -0.35605,0.0388 -0.38175,0.1468 -0.372319,0.1892 0.07493,0.35192 0.590359,0.21478 0.762232,0.13351 0.526582,-0.24857 -0.0459,-0.0744 -0.136491,-0.12332 -0.245463,-0.14211 z m -2.09858,0.11731 c -0.188939,0.002 -0.156321,0.10634 0.08165,0.26045 0.507254,0.32849 0.598962,0.32849 0.396358,0 -0.08975,-0.14552 -0.305047,-0.26245 -0.478007,-0.26045 z m 34.022734,0.33951 c -0.0549,0.0111 -0.1187,0.0371 -0.19069,0.0816 -0.1767,0.1094 -0.14674,0.25074 0.0842,0.39739 0.25769,0.16359 0.17305,0.23429 -0.30179,0.25219 -0.363,0.0137 -0.51109,0.0855 -0.32866,0.15916 0.18239,0.0737 0.25525,0.27288 0.16175,0.44235 -0.0935,0.16947 0.0988,0.0518 0.42684,-0.26097 0.4971,-0.47387 0.53294,-1.14919 0.14832,-1.07177 z m -10.97556,0.52245 c -0.29357,-0.0222 -0.46464,0.0716 -0.38034,0.20826 0.18549,0.30075 0.91416,0.33288 0.91416,0.0403 0,-0.11455 -0.24024,-0.22637 -0.53382,-0.24857 z m -2.65669,1.54771 c -0.0917,-0.004 -0.19615,0.013 -0.29145,0.0512 -0.21063,0.0845 -0.14791,0.14698 0.15968,0.15968 0.27835,0.0115 0.43393,-0.0506 0.34623,-0.13849 -0.0439,-0.0439 -0.12273,-0.0686 -0.21446,-0.0724 z m -1.95802,0.50488 c -0.14522,0 -0.44259,0.11526 -0.66042,0.25632 -0.21782,0.14107 -0.277,0.25631 -0.13178,0.25631 0.14522,0 0.44208,-0.11524 0.65991,-0.25631 0.21782,-0.14106 0.27751,-0.25632 0.13229,-0.25632 z m -21.384221,0.47284 c -0.04522,-0.0469 -0.07997,0.11751 -0.08372,0.44493 -0.0054,0.43656 0.04966,0.64732 0.121956,0.46819 0.0725,-0.17913 0.07672,-0.53632 0.0098,-0.79375 -0.01673,-0.0643 -0.03299,-0.10373 -0.04806,-0.11937 z m 12.911873,1.00252 c -0.09571,-0.0184 -0.227884,-0.0112 -0.373104,0.0269 -0.29044,0.0761 -0.528133,0.1845 -0.528133,0.2403 0,0.0558 0.237693,0.10129 0.528133,0.10129 0.29044,0 0.528133,-0.10788 0.528133,-0.23978 0,-0.066 -0.05932,-0.1103 -0.155029,-0.12868 z m -13.077755,0.36846 c -0.267629,0 -0.317358,0.88565 -0.06408,1.13946 0.09286,0.093 0.259696,0.11241 0.371036,0.0434 0.26268,-0.16268 -0.0021,-1.18287 -0.306958,-1.18287 z m 0.02015,1.72651 c -0.16674,0.10324 -0.169486,0.44617 -0.01809,2.17609 0.01592,0.1819 0.09058,0.33073 0.165882,0.33073 0.0753,0 0.115933,-0.59105 0.09043,-1.3131 -0.02551,-0.72205 -0.132738,-1.25902 -0.238228,-1.19372 z m 25.613939,1.7234 c 0.40142,-0.0506 0.79598,0.0327 0.94826,0.27957 0.0984,0.1595 0.5208,0.23979 0.93896,0.17829 0.74434,-0.10948 0.75053,-0.10017 0.29869,0.4377 -0.59794,0.7118 -0.91335,0.93706 -1.31929,0.94206 -0.56942,0.007 -0.35896,-0.48234 0.26406,-0.61392 0.32674,-0.0691 0.17806,-0.10673 -0.33021,-0.0842 -0.58245,0.0258 -0.89995,0.1631 -0.85835,0.37155 0.0893,0.4473 -0.51436,0.40144 -0.92966,-0.0708 -0.26985,-0.30742 -0.27041,-0.48565 -0.002,-0.91623 0.18,-0.28882 0.58818,-0.47337 0.9896,-0.524 z m 0.30334,0.25425 c -0.14522,0 -0.33715,0.11907 -0.42685,0.26459 -0.0897,0.14552 -0.0444,0.26458 0.10077,0.26458 0.14522,0 0.33767,-0.11906 0.42737,-0.26458 0.0897,-0.14552 0.0439,-0.26459 -0.10129,-0.26459 z m -6.65489,3.88297 c -0.3291,0.0457 -0.36618,0.26451 0.0889,0.41651 0.5079,0.16965 0.99013,0.1308 0.99013,-0.0796 0,-0.1043 -0.29686,-0.24624 -0.65991,-0.31574 -0.16724,-0.032 -0.3094,-0.0364 -0.4191,-0.0212 z m -18.381822,1.24333 c -0.04786,0.0212 -0.07752,0.0728 -0.07752,0.14987 0,0.15411 0.11833,0.28008 0.26355,0.28008 0.14522,0 0.264066,-0.0526 0.264066,-0.11679 0,-0.0642 -0.118846,-0.19018 -0.264066,-0.28008 -0.07261,-0.045 -0.138178,-0.0542 -0.186035,-0.0331 z m 19.831352,0.52349 c -1.30429,-0.0189 -1.38769,0.0123 -0.84285,0.31367 0.80416,0.44481 1.66302,0.465 2.00918,0.047 0.22268,-0.26883 -0.0198,-0.3441 -1.16633,-0.3607 z m -19.645317,0.17105 c -0.01363,0.0136 0.06626,0.12091 0.230477,0.33073 0.344929,0.44072 0.561722,0.58104 0.561722,0.36328 0,-0.0549 -0.207857,-0.2633 -0.461987,-0.46302 -0.209395,-0.16455 -0.316582,-0.24465 -0.330212,-0.23099 z m 16.89871,0.82785 c -0.119643,0 -0.239453,0.0186 -0.330213,0.0553 -0.181529,0.0735 -0.03285,0.13332 0.330213,0.13332 0.363039,0 0.511742,-0.0599 0.330212,-0.13332 -0.09076,-0.0367 -0.21057,-0.0553 -0.330212,-0.0553 z m 2.326987,0.0496 c -0.075,0.003 -0.20064,0.0294 -0.37258,0.0708 -0.42133,0.10153 -0.76637,0.19752 -0.76637,0.21342 0,0.0159 -0.28821,0.35637 -0.640267,0.75655 -0.871549,0.99068 -0.531593,0.91376 0.942057,-0.21343 0.8285,-0.6337 1.06218,-0.8359 0.83716,-0.82734 z m -21.60178,2.56212 c -0.14522,0 -0.264066,0.11906 -0.264066,0.26458 0,0.14552 0.118846,0.26459 0.264066,0.26459 0.14522,0 0.264067,-0.11907 0.264067,-0.26459 0,-0.14552 -0.118847,-0.26458 -0.264067,-0.26458 z m -0.863513,0.32659 c -0.495451,-0.0523 -1.192747,0.20303 -1.338419,0.58343 -0.08881,0.23196 -0.02101,0.33737 0.169498,0.26407 0.17425,-0.067 0.472813,0.23216 0.664042,0.66507 0.43501,0.98478 2.185774,2.46205 5.786211,4.88291 1.540952,1.0361 2.85947,2.05898 2.93057,2.27273 0.09586,0.28812 0.01147,0.27005 -0.327629,-0.0698 -0.555649,-0.55678 -0.714335,-0.5819 -0.522965,-0.0822 0.20506,0.5355 0.947122,0.76196 1.192692,0.3638 0.13475,-0.21847 0.191681,-0.12924 0.162781,0.25528 -0.02495,0.33181 -0.219954,0.59222 -0.443384,0.59222 -0.27487,0 -0.216031,0.12785 0.188619,0.41186 0.32275,0.22653 0.586527,0.53892 0.586527,0.69401 0,0.17057 -0.166953,0.14294 -0.422713,-0.0698 -0.519119,-0.43171 -1.223158,-0.56033 -1.103808,-0.20154 0.04816,0.14472 0.163181,0.22455 0.255281,0.17725 0.194,-0.0996 1.27124,1.2102 1.27124,1.54564 0,0.12394 0.237684,0.37428 0.528134,0.55604 0.290439,0.18176 0.528133,0.50797 0.528133,0.72502 0,0.57968 -0.444015,0.48105 -0.604615,-0.13436 -0.08414,-0.32243 -0.360097,-0.52916 -0.706416,-0.52916 -0.33561,0 -0.497121,-0.11594 -0.394292,-0.28267 0.0959,-0.1555 -0.07493,-0.34737 -0.380338,-0.42737 -0.31583,-0.0828 -0.554488,-0.36014 -0.554488,-0.64389 0,-0.27407 -0.126297,-0.49816 -0.280086,-0.49816 -0.15376,0 -0.212659,0.10783 -0.131259,0.23978 0.30744,0.49846 -1.076957,-0.0897 -1.90841,-0.8108 -0.47702,-0.4137 -0.968837,-0.75189 -1.092957,-0.75189 -0.374459,0 -4.961406,-4.65984 -5.724715,-5.81567 -0.606599,-0.91853 -0.667421,-1.17305 -0.413411,-1.73168 0.263469,-0.57952 0.236411,-0.65474 -0.236678,-0.65474 -0.32347,0 -0.712337,0.32118 -0.984437,0.81339 -0.490239,0.88679 -2.788362,3.9677 -6.484358,8.69249 -0.70512,0.90139 -1.2198,1.70137 -1.1436,1.77767 0.07616,0.0763 0.272903,-0.11306 0.437183,-0.42064 0.16427,-0.30763 0.411391,-0.489 0.54932,-0.4036 0.13794,0.0854 0.250631,-0.0305 0.250631,-0.25735 0,-0.22687 0.149373,-0.41237 0.331763,-0.41237 0.18238,0 0.490433,-0.36015 0.684713,-0.79995 0.213809,-0.48405 0.520337,-0.77121 0.776696,-0.72761 0.28655,0.0488 0.572968,-0.31272 0.885218,-1.11828 0.390769,-1.00822 0.46374,-1.08143 0.47594,-0.47852 0.0079,0.3916 0.13508,0.78658 0.28267,0.87798 0.147599,0.0914 0.180697,0.30668 0.0739,0.47853 -0.10655,0.17184 -0.157571,0.59364 -0.113171,0.93741 0.05125,0.39711 -0.02394,0.56038 -0.206189,0.44751 -0.15775,-0.0976 -0.286805,-0.0587 -0.286805,0.0868 0,0.14552 0.131776,0.34658 0.293006,0.44648 0.16775,0.10387 0.234129,0.54636 0.155029,1.03457 -0.10046,0.62033 -0.0073,0.96581 0.342098,1.26555 0.44167,0.37895 0.492696,0.36646 0.628385,-0.15348 0.08119,-0.31112 -0.0269,-0.83198 -0.239778,-1.15755 -0.49822,-0.76195 -0.493978,-1.02885 0.0093,-0.6103 0.217829,0.18116 0.395841,0.49356 0.395841,0.69402 0,0.20047 0.115759,0.36432 0.257349,0.36432 0.141599,0 0.498703,0.52983 0.793233,1.1777 0.29453,0.64787 0.741785,1.29399 0.994254,1.43557 0.25236,0.14158 0.368752,0.34777 0.258383,0.45837 -0.11038,0.1106 -0.673384,-0.26156 -1.251604,-0.82734 -0.578219,-0.56578 -1.051615,-0.88561 -1.051615,-0.71055 0,0.17505 0.118847,0.31833 0.264067,0.31833 0.145219,0 0.264066,0.11385 0.264066,0.25321 0,0.13936 0.674764,0.91327 1.499133,1.7198 v 5.1e-4 c 1.450299,1.4189 2.107434,1.82045 1.856735,1.13533 -0.06655,-0.18186 -0.250621,-0.30228 -0.408761,-0.26768 -0.15819,0.0346 -0.218659,-0.1172 -0.134359,-0.33745 0.19398,-0.50655 0.882318,-0.0126 0.888318,0.63769 0.0035,0.37499 0.03712,0.37924 0.26355,0.0336 0.16306,-0.2489 0.33417,-0.29822 0.45837,-0.13229 0.10891,0.14552 0.482631,0.30488 0.83044,0.35398 0.59479,0.084 0.622723,0.0289 0.473873,-0.92604 -0.14529,-0.93218 -0.126734,-0.97331 0.225826,-0.50178 0.2112,0.28248 0.383956,0.72896 0.383956,0.99219 0,0.26323 0.116539,0.47852 0.258899,0.47852 0.14235,0 0.215364,-0.45145 0.162264,-1.00355 l -0.09664,-1.00408 0.762227,0.71314 c 0.41898,0.3922 0.761711,0.84417 0.761711,1.00407 0,0.15989 0.35653,0.29042 0.7922,0.29042 0.455499,0 0.793817,-0.14054 0.795817,-0.33073 0.0032,-0.26141 0.04896,-0.26038 0.216524,0.004 0.04627,0.073 0.190964,0.12756 0.390157,0.17363 0.215476,-0.11488 0.444775,-0.19858 0.679545,-0.26407 0.247418,-0.0637 0.502325,-0.086 0.756543,-0.10076 0.204963,-0.0109 0.410284,-0.013 0.615466,-0.015 0.193528,-0.001 0.38731,-0.002 0.580844,-0.002 0.191489,-2.3e-4 0.382634,4e-5 0.574125,0 0.191173,-3e-5 0.382435,0 0.573608,0 0.250869,-1e-5 0.50154,0 0.752409,0 0.267019,2.5e-4 0.534113,-0.002 0.800985,-0.001 0.26687,0.001 0.533729,0.006 0.800468,0.0186 0.06281,0.005 0.125774,0.009 0.188619,0.0134 0.04132,-0.0337 0.08808,-0.0542 0.129707,-0.093 0.76964,-0.71742 0.749653,-1.19579 -0.08682,-2.07067 -0.610729,-0.63878 -0.644932,-0.77553 -0.330212,-1.32706 0.192989,-0.33822 0.499565,-0.7772 0.681095,-0.97513 0.533149,-0.58131 0.3817,-0.63259 -0.383439,-0.13022 -0.696919,0.45762 -0.708471,0.45629 -0.498161,-0.0599 0.1184,-0.29065 0.275199,-0.73701 0.348299,-0.99167 0.07307,-0.25467 0.252356,-0.46302 0.398426,-0.46302 0.149969,0 0.122634,-0.17269 -0.06305,-0.39688 -0.292239,-0.35285 -0.223665,-0.35285 0.619084,0 1.224019,0.51234 1.228865,0.51129 1.228865,-0.24701 0,-0.46299 -0.315116,-0.85592 -1.121895,-1.39785 -0.617179,-0.41458 -1.157227,-0.99462 -1.199927,-1.28881 -0.04331,-0.29851 0.510918,-1.43824 1.254187,-2.57917 1.411569,-2.16679 1.620364,-2.63617 0.869715,-1.95543 -0.44936,0.40753 -0.570046,0.45682 -1.121896,0.45682 -0.145229,0 -0.264066,0.17859 -0.264066,0.39687 0,0.21828 -0.09022,0.39688 -0.200505,0.39688 -0.11028,0 -0.359948,0.25526 -0.554488,0.5674 -0.31325,0.50269 -0.303076,0.54819 0.09043,0.39688 0.675639,-0.25981 0.341533,0.43312 -0.385506,0.79943 -0.46634,0.23496 -0.730577,0.23496 -1.107426,0 -0.47022,-0.29318 -0.46468,-0.31591 0.10542,-0.4532 0.515169,-0.12407 0.535079,-0.16904 0.14211,-0.32039 -0.56271,-0.21671 -0.330402,-0.99925 0.287838,-0.96945 0.273939,0.0132 0.312289,0.0702 0.103869,0.15451 -0.369699,0.14949 -0.45203,0.61857 -0.10852,0.61857 0.12191,0 0.355035,-0.29357 0.518314,-0.65268 0.27926,-0.61416 0.254417,-0.64814 -0.419612,-0.56534 -0.39411,0.0484 -0.516958,0.0376 -0.273369,-0.0243 0.24359,-0.0619 0.60013,-0.30632 0.7922,-0.54311 0.30118,-0.3713 0.285318,-0.4065 -0.113171,-0.25684 -0.25414,0.0954 -0.461988,0.0583 -0.461988,-0.0827 0,-0.14095 0.237694,-0.25631 0.528134,-0.25631 0.578719,0 0.704971,-0.38844 0.223242,-0.68678 -0.18883,-0.11697 -0.233002,-0.0725 -0.116272,0.11679 0.11163,0.18099 0.02068,0.3054 -0.223242,0.3054 -0.2264,0 -0.411862,-0.11906 -0.411862,-0.26458 0,-0.1455 -0.386376,-0.25541 -0.858345,-0.24391 l -0.857829,0.0212 0.73949,0.27027 c 0.748589,0.27355 0.842966,0.74692 0.192236,0.96428 -0.24445,0.0816 -0.301154,-0.0237 -0.181384,-0.33641 0.11596,-0.30276 0.06366,-0.41453 -0.156063,-0.33383 -0.18162,0.0667 -0.300366,0.25539 -0.264067,0.4191 0.0363,0.16371 -0.165318,0.29765 -0.447517,0.29765 -0.68783,0 -1.456602,1.07247 -1.000973,1.3963 0.23717,0.16854 0.218417,0.20062 -0.06976,0.11782 -0.21948,-0.063 -0.356792,-0.33749 -0.307992,-0.61546 0.06842,-0.38971 0.0164,-0.4317 -0.23306,-0.18862 -0.4355,0.42435 -0.121192,1.14205 0.500228,1.14205 0.277209,0 0.640092,0.16381 0.806152,0.36432 0.23644,0.28548 0.192421,0.39347 -0.203088,0.49712 -0.50634,0.13268 -1.882573,-0.89184 -1.882573,-1.40146 0,-0.13963 -0.237693,-0.25373 -0.528133,-0.25373 -0.577843,0 -0.727724,0.66893 -0.197921,0.88315 0.19717,0.0797 0.143742,0.14201 -0.132291,0.15451 -0.25414,0.0115 -0.461988,-0.0984 -0.461988,-0.24391 0,-0.14552 -0.112691,-0.26459 -0.25063,-0.26459 -0.42398,0 -2.725026,-1.61087 -3.886585,-2.72076 -0.984249,-0.94047 -1.070243,-1.11903 -0.812353,-1.6862 0.208909,-0.4597 0.208322,-0.71471 -0.0021,-0.92553 -0.09241,-0.0926 -0.235341,-0.14431 -0.400492,-0.16175 z m 18.127576,0.28836 c -0.10344,-0.0137 -0.366232,0.0842 -0.788583,0.30489 -0.421009,0.21998 -0.649725,0.40064 -0.508496,0.40153 0.14123,9e-4 -0.0077,0.1872 -0.330729,0.41392 -0.323009,0.2267 -0.724008,0.32692 -0.891418,0.22325 -0.18837,-0.11669 -0.232375,-0.0718 -0.115755,0.1173 0.302712,0.49037 0.762937,0.35988 1.826761,-0.51883 0.710775,-0.58707 0.980619,-0.91924 0.80822,-0.94206 z m -5.668388,0.21136 c -0.09172,-0.004 -0.196155,0.013 -0.291455,0.0512 -0.21063,0.0845 -0.148426,0.14698 0.159163,0.15968 0.27835,0.0115 0.434449,-0.0506 0.346749,-0.1385 -0.04387,-0.0439 -0.122732,-0.0686 -0.214457,-0.0723 z m -0.241846,1.02577 c -0.14522,0 -0.264066,0.11907 -0.264066,0.26459 0,0.14552 0.118846,0.26458 0.264066,0.26458 0.14522,0 0.26355,-0.11906 0.26355,-0.26458 0,-0.14552 -0.11833,-0.26459 -0.26355,-0.26459 z m 2.768823,1.18391 c -0.0443,-0.0186 -0.129528,-0.007 -0.247013,0.0382 -0.22538,0.0867 -0.409794,0.20428 -0.409794,0.26148 0,0.21428 0.503298,0.0938 0.658358,-0.15761 0.04625,-0.075 0.04275,-0.12356 -0.0016,-0.14211 z m -1.844848,0.40359 c -0.23494,0 -0.353767,0.11907 -0.264067,0.26459 0.08975,0.14552 0.208567,0.26458 0.264067,0.26458 0.05547,0 0.174267,-0.11906 0.264066,-0.26458 0.08976,-0.14552 -0.0291,-0.26459 -0.264066,-0.26459 z m -15.759762,0.13229 0.435633,0.59583 c 0.239659,0.32768 0.361034,0.71775 0.269234,0.86662 -0.09182,0.14887 -0.02431,0.23792 0.149862,0.19792 0.174169,-0.04 0.370582,0.076 0.437182,0.25786 0.0747,0.20415 -0.11476,0.33287 -0.49506,0.33487 -0.33883,0.002 -0.49685,0.0915 -0.3514,0.19843 0.14546,0.10691 0.437783,0.53073 0.649573,0.94207 0.33625,0.65305 0.406842,0.6866 0.557072,0.26458 0.0946,-0.26582 0.108722,-0.65154 0.03152,-0.85731 -0.09137,-0.24357 -0.02879,-0.30511 0.179318,-0.17622 0.17586,0.10888 0.24908,0.42107 0.16278,0.6935 -0.248969,0.78605 0.131768,2.3555 0.533818,2.2009 0.35812,-0.13771 0.561802,0.34845 0.625802,1.49241 0.02034,0.3638 0.07859,0.89959 0.129191,1.19063 0.05064,0.29105 -0.03955,0.62754 -0.200505,0.74776 -0.20976,0.15667 -0.199363,0.25675 0.03721,0.35295 0.47751,0.19416 0.405295,0.56479 -0.131775,0.67541 -0.254129,0.0524 -0.610836,-0.0875 -0.792716,-0.3111 -0.2905,-0.3571 -0.311366,-0.35042 -0.170016,0.0563 0.089,0.25466 0.08783,0.6552 -0.0021,0.88987 -0.13355,0.34876 -0.23586,0.36601 -0.562239,0.0946 -0.21962,-0.18274 -0.468755,-0.26267 -0.553455,-0.17777 -0.08471,0.0849 0.363522,0.63585 0.996322,1.22473 0.632799,0.58888 0.995208,1.07236 0.805119,1.07436 -0.19045,0.002 -0.272118,0.12215 -0.182418,0.26768 h -5.17e-4 c 0.0898,0.14552 0.0967,0.26458 0.0155,0.26458 -0.14831,0 -0.229569,-0.24795 -0.187069,-0.56999 0.01255,-0.0952 -0.174065,-0.33332 -0.414445,-0.52916 -0.380979,-0.31043 -0.414439,-0.2952 -0.258899,0.1204 0.10718,0.28642 0.07464,0.41233 -0.08217,0.31523 -0.14355,-0.0889 -0.260966,-0.39161 -0.260966,-0.67283 0,-0.28122 -0.225829,-0.65258 -0.501778,-0.82527 -0.28649,-0.17927 -0.4373,-0.48249 -0.3514,-0.70694 0.1064,-0.27782 0.04693,-0.32899 -0.203089,-0.17415 -0.253339,0.1569 -0.309417,0.10265 -0.196887,-0.1912 0.11836,-0.30908 0.02608,-0.37604 -0.37362,-0.2713 -0.39533,0.10359 -0.442338,0.19338 -0.185519,0.35243 0.18963,0.11742 0.26003,0.29839 0.15658,0.40205 -0.10345,0.10366 -0.05355,0.35102 0.111104,0.54983 0.16466,0.1988 0.238848,0.422 0.164848,0.4961 -0.20268,0.20309 -1.789038,-1.69529 -1.789038,-2.14096 0,-0.47489 0.300777,-0.49642 0.792716,-0.0568 0.31092,0.27793 0.318489,0.26215 0.04806,-0.0987 -0.177039,-0.23622 -0.247696,-0.62317 -0.157096,-0.8599 0.09104,-0.23775 0.03434,-0.43046 -0.127124,-0.43046 -0.16075,0 -0.292488,-0.21452 -0.292488,-0.47646 0,-0.26194 -0.142507,-0.61912 -0.316777,-0.79375 -0.22073,-0.2212 -0.227464,-0.31729 -0.0217,-0.31729 0.16242,0 0.552484,0.41672 0.866614,0.92604 0.568129,0.92117 1.056266,1.20659 1.056266,0.61753 0,-0.16976 -0.08028,-0.22842 -0.178284,-0.13022 -0.286459,0.28705 -1.138499,-1.21367 -1.140499,-2.00867 -9.6e-4,-0.40018 0.08745,-0.71328 0.196371,-0.69608 0.520199,0.0823 0.686612,-0.0648 0.330212,-0.29197 -0.304539,-0.19412 -0.329673,-0.36122 -0.108004,-0.72347 0.15852,-0.2591 0.237917,-0.62012 0.176217,-0.80202 -0.17789,-0.52416 -0.75123,-0.38532 -1.09244,0.26459 -0.176359,0.33591 -0.252583,0.38735 -0.175183,0.11833 0.0866,-0.30064 0.03121,-0.41115 -0.150378,-0.29869 -0.16094,0.0997 -0.221359,0.50922 -0.13746,0.92966 0.08248,0.41327 0.03505,0.82251 -0.105419,0.90951 -0.1438,0.0891 -0.263335,-0.22431 -0.272335,-0.71727 -0.01598,-0.8359 -0.0285,-0.84613 -0.273369,-0.23203 -0.166509,0.41758 -0.165359,0.90484 0.0031,1.38907 0.33196,0.95421 0.09932,0.9809 -0.261483,0.03 -0.304509,-0.80258 -0.06485,-2.80801 0.307992,-2.57711 0.13235,0.082 0.240295,0.0144 0.240295,-0.15037 0,-0.16482 0.208365,-0.25704 0.462504,-0.20464 0.25413,0.0523 0.599679,-0.0864 0.768429,-0.30851 0.26346,-0.34677 0.353624,-0.30157 0.636653,0.32091 0.1813,0.39872 0.419367,0.72502 0.529167,0.72502 0.10981,0 0.324394,0.32742 0.476974,0.7276 0.247929,0.65026 0.261616,0.61511 0.125057,-0.33073 -0.08405,-0.58207 -0.318206,-1.19081 -0.519865,-1.35237 -0.50508,-0.40467 -0.470927,-1.42575 0.04754,-1.42575 0.30479,0 0.367602,-0.15688 0.239262,-0.59531 z m -0.991154,0.66146 c 0.15384,0 0.205972,0.11907 0.116272,0.26459 -0.08975,0.14552 -0.215569,0.26458 -0.279569,0.26458 -0.06404,0 -0.116272,-0.11906 -0.116272,-0.26458 0,-0.14552 0.125779,-0.26459 0.279569,-0.26459 z m 0.854212,0.89297 c -0.04786,0.0212 -0.07752,0.0728 -0.07752,0.14986 0,0.15411 0.118847,0.28009 0.264067,0.28009 0.14522,0 0.264066,-0.0526 0.264066,-0.11679 0,-0.0642 -0.118846,-0.19019 -0.264066,-0.28009 -0.07261,-0.045 -0.138695,-0.0542 -0.186552,-0.0331 z m 2.620512,1.70946 0.760677,0.73019 c 0.754059,0.72391 0.864718,1.2673 0.134358,0.6599 -0.305069,-0.25371 -0.404845,-0.22191 -0.503845,0.16072 -0.14873,0.57473 -0.192691,0.47868 -0.304891,-0.66921 z m 10.953336,0.91105 c 0.05699,0.007 0.07591,0.0812 0.07441,0.22428 -0.0022,0.19972 -0.104586,0.52213 -0.227376,0.71623 -0.18138,0.28674 -0.251845,0.27774 -0.376204,-0.047 -0.08419,-0.21984 0.01818,-0.54174 0.227376,-0.71572 0.14986,-0.12464 0.2448,-0.18486 0.30179,-0.17777 z m -9.235095,0.99374 c 0.11226,0.005 0.555997,0.29796 0.985986,0.65009 0.81543,0.66775 0.846085,0.89981 0.09664,0.73174 -0.444819,-0.0998 -1.463181,-1.39953 -1.082621,-1.38183 z m -5.834269,0.41651 c 0.01308,0.009 0.0126,0.058 -0.0047,0.14625 -0.08202,0.41957 -0.68988,0.62035 -0.68988,0.22789 0,-0.16619 0.108509,-0.23474 0.241329,-0.15244 0.132819,0.0822 0.302621,0.0265 0.376721,-0.12351 0.03705,-0.075 0.06341,-0.10688 0.07648,-0.0982 z m 13.416752,0.23048 c -0.0013,-0.0715 0.416428,0.006 1.254187,0.25838 1.409319,0.42502 2.748494,1.08216 2.984314,1.46451 0.21856,0.35436 -0.116222,0.3002 -0.922941,-0.14986 -0.36305,-0.20254 -1.287309,-0.62463 -2.054138,-0.93793 -0.83952,-0.34294 -1.260112,-0.56358 -1.261422,-0.6351 z m -12.45402,0.5054 c -0.06921,0.0694 -0.04764,0.25304 0.04806,0.40824 0.26039,0.42214 0.412634,0.34014 0.234094,-0.12609 -0.08599,-0.22458 -0.212953,-0.35155 -0.282153,-0.28215 z m 3.218925,0.28318 c -0.04776,-0.0178 -0.08165,0.13436 -0.08165,0.40721 0,0.36383 0.06003,0.51263 0.133325,0.33073 0.0733,-0.1819 0.0733,-0.47956 0,-0.66146 -0.01832,-0.0455 -0.03576,-0.0705 -0.05168,-0.0765 z m -1.316199,0.0491 c -0.202658,-0.0515 -0.145916,0.33533 0.202572,0.89968 0.263449,0.42662 0.347378,0.45274 0.415478,0.12919 0.04691,-0.22295 -0.101773,-0.59274 -0.330212,-0.82165 -0.124028,-0.12428 -0.220285,-0.19005 -0.287838,-0.20722 z m 2.257227,0.0935 c 0.140659,0 0.255798,0.17859 0.255798,0.39687 0,0.21828 -0.04677,0.39688 -0.10387,0.39688 -0.05707,0 -0.172198,-0.1786 -0.255798,-0.39688 -0.08359,-0.21828 -0.03679,-0.39687 0.10387,-0.39687 z m -6.676079,0.17777 c 0.06237,-0.0353 0.180018,-0.0293 0.355017,0.0165 0.28184,0.0739 0.561368,0.21391 0.621668,0.31161 0.06028,0.0977 -0.110139,0.19468 -0.378788,0.21498 -0.26865,0.0203 -0.548685,-0.12025 -0.622185,-0.31213 -0.04563,-0.11914 -0.03808,-0.19567 0.02429,-0.23099 z m 6.940145,0.88056 c 0.14066,0 0.255798,0.1786 0.255798,0.39688 0,0.21829 -0.04677,0.39687 -0.103869,0.39687 -0.05707,0 -0.172199,-0.17858 -0.255799,-0.39687 -0.08359,-0.21828 -0.03679,-0.39688 0.10387,-0.39688 z m -6.073014,0.26459 c 0.14066,0 0.255798,0.17859 0.255798,0.39687 0,0.21828 -0.04677,0.39688 -0.103869,0.39688 -0.05707,0 -0.172199,-0.1786 -0.255799,-0.39688 -0.08359,-0.21828 -0.03679,-0.39687 0.10387,-0.39687 z m -2.253609,1.02526 c -0.07375,-0.0156 -0.131501,0.0911 -0.134876,0.3638 -0.0027,0.22053 -0.0893,0.19843 -0.259932,-0.0661 -0.14077,-0.21832 -0.257933,-0.32132 -0.259933,-0.22892 -0.0072,0.29868 0.643892,1.66389 1.154452,2.42 0.273239,0.40472 0.414889,0.8179 0.314709,0.91829 -0.10018,0.10038 -0.292264,0.007 -0.427364,-0.2067 -0.16638,-0.2636 -0.246597,-0.28237 -0.249597,-0.0584 -0.0062,0.50443 0.106802,0.73456 0.325561,0.66146 0.10893,-0.0364 0.198438,0.10554 0.198438,0.31523 0,0.20969 0.137308,0.46641 0.305408,0.57051 0.209439,0.12969 0.258589,0.01 0.156579,-0.38138 -0.20258,-0.77628 0.160373,-0.72102 0.593762,0.0904 0.19418,0.36358 0.405222,0.60887 0.469222,0.54467 0.06403,-0.0642 -0.133993,-0.46969 -0.440283,-0.90072 -0.306279,-0.43102 -0.557072,-0.99028 -0.557072,-1.24282 0,-0.25253 -0.180676,-0.59162 -0.401526,-0.75344 -0.220849,-0.16182 -0.428687,-0.68052 -0.461987,-1.1529 -0.03534,-0.50149 -0.202649,-0.86697 -0.325561,-0.89297 z m 1.292944,0.29765 c 0.05708,0 0.172198,0.1786 0.255798,0.39688 0.08359,0.21828 0.03679,0.39687 -0.103869,0.39687 -0.14067,0 -0.255799,-0.17859 -0.255799,-0.39687 0,-0.21828 0.04677,-0.39688 0.10387,-0.39688 z m 4.256071,0.39016 c -0.04431,0.0185 -0.04728,0.0671 -0.001,0.14211 0.08872,0.14385 0.273145,0.26148 0.409794,0.26148 0.3798,0 0.295683,-0.18946 -0.161747,-0.36535 -0.117475,-0.0452 -0.202707,-0.0568 -0.247013,-0.0382 z m 1.813843,1.00821 c 0.06341,-0.0635 0.191437,0.12555 0.284737,0.42013 0.11207,0.35386 0.32172,0.48722 0.61805,0.39222 0.26601,-0.0853 0.341055,-0.0516 0.184485,0.0827 -0.14522,0.12456 -0.349386,0.33074 -0.454236,0.45837 -0.10485,0.12763 -0.316389,-0.0986 -0.469739,-0.50281 -0.15331,-0.40417 -0.226697,-0.78699 -0.163297,-0.85059 z m -7.680152,0.55293 c -0.04786,0.0212 -0.07751,0.0728 -0.07751,0.14987 0,0.15411 0.118846,0.28008 0.264066,0.28008 0.14522,0 0.264067,-0.0526 0.264067,-0.11679 0,-0.0642 -0.118847,-0.19018 -0.264067,-0.28008 -0.07261,-0.045 -0.138694,-0.0542 -0.186552,-0.0331 z m -2.644283,0.79479 c -0.02775,0.0278 -0.04636,0.12029 -0.05271,0.2744 -0.01147,0.27886 0.05079,0.43517 0.138493,0.34727 0.0877,-0.0879 0.09697,-0.31596 0.02067,-0.50695 -0.04216,-0.10553 -0.0787,-0.14254 -0.106454,-0.11472 z m 5.428609,0.42891 c -0.465299,0 -0.188994,0.6703 0.622185,1.50895 1.033179,1.06819 1.764156,1.2078 1.113627,0.21291 -0.23706,-0.36255 -0.536356,-0.59388 -0.665076,-0.51418 -0.12872,0.0797 -0.372429,-0.15923 -0.541569,-0.53123 -0.16915,-0.37201 -0.407257,-0.67645 -0.529167,-0.67645 z m 3.824056,0.58291 c 0.05443,0.007 0.132642,0.0586 0.227377,0.15348 0.17202,0.1722 0.251216,0.37439 0.176216,0.44959 -0.07503,0.0752 -0.215842,0.0577 -0.312642,-0.0393 -0.09683,-0.097 -0.176217,-0.29972 -0.176217,-0.4501 0,-0.0829 0.03084,-0.1206 0.08527,-0.11369 z m -7.703922,0.0842 c -0.0625,0.0626 0.03697,0.29548 0.220658,0.51728 0.47105,0.56875 0.598821,0.50088 0.215491,-0.11421 -0.17726,-0.28442 -0.373649,-0.46567 -0.436149,-0.40307 z m 9.011853,0.22996 c 0.06921,-0.0694 0.196153,0.0576 0.282153,0.28215 0.17854,0.46623 0.02677,0.54822 -0.233577,0.12609 -0.0957,-0.1552 -0.117776,-0.33884 -0.04858,-0.40824 z m -10.266557,0.69039 c -0.05707,0 -0.103869,0.1786 -0.103869,0.39688 0,0.21828 0.115128,0.39687 0.255798,0.39687 0.14067,0 0.187469,-0.17859 0.103869,-0.39687 -0.08359,-0.21828 -0.198698,-0.39688 -0.255798,-0.39688 z m 12.862264,0 c -0.12968,0 -0.303973,0.1786 -0.387573,0.39688 -0.09258,0.24176 -5.65e-4,0.39687 0.235644,0.39687 0.21327,0 0.387574,-0.17859 0.387574,-0.39687 0,-0.21828 -0.105965,-0.39688 -0.235645,-0.39688 z m -7.343738,0.3638 c -0.04786,0.0211 -0.07751,0.0728 -0.07751,0.14987 0,0.15411 0.118846,0.28008 0.264066,0.28008 0.14522,0 0.264067,-0.0526 0.264067,-0.11679 0,-0.0642 -0.118847,-0.19018 -0.264067,-0.28008 -0.07261,-0.045 -0.138694,-0.0542 -0.186552,-0.0331 z" /><text
         xml:space="preserve"
         transform="matrix(0.26458333,0,0,0.26458333,-7.0008408,-1.2094871)"
         id="text1"
         style="font-size:37.3333px;line-height:0.3;white-space:pre;shape-inside:url(#rect1);display:inline;fill:#2b0000"><tspan
           x="277.37891"
           y="549.41488"
           id="tspan2"><tspan
             style="font-style:italic;font-weight:bold;font-family:'Century Gothic';-inkscape-font-specification:'Century Gothic Bold Italic'"
             id="tspan1">La Dambana</tspan></tspan></text><path
         id="path3"
         style="fill:#550000;stroke-width:0.264583"
         d="m 84.240853,198.13674 c -21.722401,0.0111 -22.725015,0.0119 -29.322241,0.015 0.984216,0.0537 1.969084,0.0985 2.954341,0.13022 1.520546,0.0466 3.041882,0.0671 4.563029,0.0806 1.150224,0.009 2.300701,0.0135 3.450952,0.0165 0.682026,0.002 1.363846,0.002 2.04587,0.003 0.461728,2.8e-4 0.923718,4.7e-4 1.385446,5.1e-4 0.476928,4e-5 0.953475,-1e-5 1.430403,0 0.411428,1e-5 0.823126,0 1.23455,0 h 1.163753 1.149284 0.567924 c 0.821223,0 1.453462,0.18626 1.918229,0.46819 0.144134,-0.0267 0.289433,-0.0506 0.429948,-0.0858 0.612615,-0.15315 1.455847,0 2.102198,0 h 2.235522 c 0.206252,-0.0625 0.413094,-0.12377 0.622184,-0.17622 0.304696,-0.0507 0.60028,-0.12577 0.898653,-0.20257 0.325015,-0.0584 0.644841,-0.13329 0.967383,-0.20309 0.05295,-0.0235 0.12373,-0.0371 0.202572,-0.0465 z" /></g></g></svg>
