<?xml version="1.0" encoding="UTF-8" standalone="no"?>
<!-- Created with Inkscape (http://www.inkscape.org/) -->

<svg
   width="210mm"
   height="297mm"
   viewBox="0 0 210 297"
   version="1.1"
   id="svg1"
   xml:space="preserve"
   inkscape:version="1.3.2 (091e20e, 2023-11-25, custom)"
   sodipodi:docname="logo7.svg"
   xmlns:inkscape="http://www.inkscape.org/namespaces/inkscape"
   xmlns:sodipodi="http://sodipodi.sourceforge.net/DTD/sodipodi-0.dtd"
   xmlns="http://www.w3.org/2000/svg"
   xmlns:svg="http://www.w3.org/2000/svg"><sodipodi:namedview
     id="namedview1"
     pagecolor="#505050"
     bordercolor="#eeeeee"
     borderopacity="1"
     inkscape:showpageshadow="0"
     inkscape:pageopacity="0"
     inkscape:pagecheckerboard="0"
     inkscape:deskcolor="#505050"
     inkscape:document-units="mm"
     inkscape:zoom="0.69219276"
     inkscape:cx="473.1341"
     inkscape:cy="542.47895"
     inkscape:window-width="1920"
     inkscape:window-height="991"
     inkscape:window-x="-9"
     inkscape:window-y="-9"
     inkscape:window-maximized="1"
     inkscape:current-layer="layer1" /><defs
     id="defs1"><rect
       x="101.1279"
       y="592.32055"
       width="613.99082"
       height="252.81975"
       id="rect17" /><rect
       x="257.1538"
       y="622.65892"
       width="327.94333"
       height="56.342687"
       id="rect16" /><rect
       x="101.1279"
       y="592.32056"
       width="613.99084"
       height="252.81975"
       id="rect17-4" /></defs><g
     inkscape:label="Layer 1"
     inkscape:groupmode="layer"
     id="layer1"><g
       id="g20"
       transform="translate(-34.401544,-82.945946)"><ellipse
         style="fill:#550000;stroke-width:0.264583"
         id="path20"
         cx="96.324318"
         cy="200.29344"
         rx="29.432432"
         ry="30.579153" /><ellipse
         style="fill:#f9f9f9;stroke-width:0.23682"
         id="path20-6"
         cx="71.517189"
         cy="213.02835"
         rx="26.747492"
         ry="26.957544"
         transform="matrix(0.9937921,-0.11125317,0.11832422,0.99297501,0,0)" /><path
         id="path17"
         style="fill:#550000;stroke-width:0.503195"
         d="m 89.522935,180.10711 c -0.32721,-1.2e-4 -0.5619,0.0499 -0.79529,0.15005 -0.39218,0.16839 -0.68181,0.45671 -0.57775,0.57526 0.0333,0.0379 -0.0704,0.19385 -0.23047,0.34666 -0.16011,0.15281 -0.29094,0.35705 -0.29094,0.45388 0,0.1783 0.49528,0.56059 0.83354,0.64341 0.16219,0.0397 0.17986,0.30524 0.14779,2.19382 -0.0201,1.18158 -0.0708,2.50693 -0.11265,2.94557 -0.0626,0.65568 -0.0386,0.86644 0.13384,1.18441 0.36021,0.66416 0.21089,1.29649 -0.50436,2.13872 -0.3266,0.38459 -0.69147,0.83565 -0.81132,1.00233 -0.11984,0.16668 -0.41352,0.54032 -0.65267,0.83068 -0.38438,0.46669 -0.61342,0.89552 -1.06402,1.99426 -0.21009,0.51227 -0.21131,0.51277 -1.111561,0.41329 -1.636525,-0.1808 -5.986021,-0.29963 -7.157186,-0.19548 -1.502662,0.13367 -1.943324,0.25752 -2.466516,0.69218 -0.391423,0.32519 -0.450171,0.4336 -0.514181,0.94835 -0.04158,0.33417 -0.0111,0.82836 0.07183,1.16282 0.07933,0.31993 0.157503,0.69395 0.173633,0.83105 0.238625,2.02907 0.659004,4.13713 0.886768,4.44499 0.05096,0.069 0.206221,0.30083 0.344682,0.51533 0.497803,0.77113 2.778444,1.97336 4.478796,2.361 0.530387,0.12085 0.786921,0.22389 0.815971,0.32765 0.02331,0.0832 0.188278,0.254 0.366386,0.37943 0.252339,0.17768 0.390196,0.42643 0.624768,1.12705 0.165568,0.49451 0.33368,1.10507 0.37362,1.35643 0.03996,0.25138 0.175147,1.07505 0.300241,1.8308 0.238973,1.44378 0.348588,4.52622 0.165364,4.65126 -0.102374,0.0699 -1.033655,-0.0671 -1.312065,-0.19287 -0.08113,-0.0367 -0.202541,-0.043 -0.269751,-0.0137 -0.06721,0.0293 -0.437124,0.0846 -0.822172,0.12288 -1.193069,0.11869 -3.085797,0.89091 -3.373954,1.37655 -0.17719,0.29861 -0.140423,0.92289 0.0708,1.20079 0.380175,0.50019 2.752526,1.43117 4.961971,1.94733 1.069427,0.24982 2.538346,0.45308 4.124296,0.57043 v -3.8e-4 c 0.22717,0.0169 0.49623,0.0367 0.5979,0.0439 0.37601,0.0269 1.61637,-0.16688 2.6665,-0.41665 0.94988,-0.22591 1.16131,-0.31395 1.73995,-0.72569 0.62104,-0.44191 0.65254,-0.4841 0.55035,-0.735 -0.15067,-0.36995 -1.04349,-1.16336 -1.8557,-1.6491 -0.37471,-0.22407 -0.92204,-0.56747 -1.21646,-0.76328 -0.29442,-0.1958 -0.66818,-0.37676 -0.83044,-0.40212 -0.16227,-0.0254 -0.55734,-0.10439 -0.87747,-0.17538 -0.32014,-0.071 -0.8659,-0.1315 -1.21336,-0.13516 -0.70826,-0.006 -0.67349,0.0291 -0.79582,-0.83329 -0.0382,-0.26899 -0.10267,-0.52654 -0.14314,-0.57266 -0.0761,-0.0868 -0.1097,-0.60302 -0.21033,-3.21776 -0.03762,-0.97745 -0.125227,-1.71894 -0.240292,-2.03595 -0.10353,-0.28524 -0.213352,-1.09467 -0.256832,-1.89185 -0.07252,-1.32857 -0.06475,-1.4023 0.165881,-1.57909 0.133037,-0.10197 0.451633,-0.48105 0.707963,-0.84261 l 0.46561,-0.65754 0.0801,0.90665 c 0.0922,1.0481 0.50333,3.26585 1.07642,5.80773 0.0925,0.41034 0.19877,1.19572 0.23668,1.74516 0.0379,0.54945 0.0981,1.19744 0.13332,1.44021 0.0622,0.42825 0.0732,0.43999 0.38086,0.39245 0.22787,-0.0352 0.42706,0.008 0.70693,0.1534 0.21423,0.11127 0.53183,0.24045 0.7059,0.28707 0.35757,0.0956 1.7896,0.30533 2.67684,0.39207 0.32453,0.0317 0.77587,0.0781 1.00304,0.10278 0.22717,0.0247 0.8907,0.0436 1.47484,0.0421 0.88267,-0.003 1.20174,-0.0421 1.88826,-0.23569 0.89457,-0.25229 2.03515,-0.72124 2.27169,-0.93422 0.21826,-0.19648 0.17969,-0.47055 -0.091,-0.64302 -0.1313,-0.0838 -0.18794,-0.17427 -0.12557,-0.20144 0.11714,-0.051 -0.0478,-1.33565 -0.40618,-3.16226 -0.11548,-0.58784 -0.15832,-1.15712 -0.11162,-1.47894 0.0475,-0.32765 0.0288,-0.56306 -0.0501,-0.62999 -0.13168,-0.11168 -0.19646,-5.51338 -0.0739,-6.15924 0.22607,-1.19123 0.27817,-1.93674 0.23823,-3.4069 -0.0474,-1.74555 -0.14247,-2.16958 -0.69401,-3.09562 -0.15652,-0.2628 -0.37285,-0.87001 -0.48059,-1.34936 -0.10774,-0.47937 -0.29807,-1.03469 -0.42323,-1.23393 -0.60969,-0.97054 -1.72366,-2.01777 -2.40089,-2.25712 -0.32049,-0.1133 -0.36767,-0.18523 -0.5178,-0.78937 -0.12143,-0.48868 -0.14278,-0.97297 -0.0811,-1.82818 0.0462,-0.63985 0.0861,-1.23821 0.0894,-1.32961 0.003,-0.0915 -0.0621,-0.54886 -0.14469,-1.01687 -0.11213,-0.63499 -0.11832,-0.98314 -0.0238,-1.37133 0.26002,-1.06757 -0.10655,-1.63189 -1.08314,-1.66771 -0.23878,-0.009 -0.4343,-0.0291 -0.4346,-0.0455 -2.8e-4,-0.0164 0.1341,-0.10385 0.29818,-0.19473 0.34229,-0.18959 0.76377,-0.72813 0.76377,-0.97589 0,-0.0925 -0.14699,-0.28371 -0.32607,-0.42486 -0.25859,-0.20378 -0.51925,-0.28908 -1.26814,-0.41403 -0.60282,-0.10045 -1.02258,-0.15068 -1.34979,-0.15079 z m 0.4067,0.48218 0.447,0.34925 c 0.24598,0.19205 0.43173,0.4079 0.41238,0.47995 -0.0938,0.3493 -1.7446,0.0209 -1.7446,-0.34702 0,-0.14295 0.11602,-0.23167 0.44235,-0.33808 z m -1.31982,0.86458 c 0.0417,-0.0293 0.38886,0.0455 0.77153,0.16642 0.38267,0.12099 0.88817,0.22006 1.12345,0.22006 0.23528,0 0.42788,0.0373 0.42788,0.0831 0,0.0457 -0.0803,0.0831 -0.17828,0.0831 -0.14455,0 -0.16548,0.0822 -0.11163,0.43638 0.0365,0.23996 0.0853,1.50192 0.10853,2.80447 0.0232,1.30255 0.0602,2.46194 0.0822,2.57622 0.0346,0.1797 -0.007,0.20921 -0.31368,0.2193 -0.19472,0.006 -0.54023,-0.0121 -0.7674,-0.0413 l -0.41289,-0.0533 0.0238,-1.95292 c 0.028,-2.29235 0.13346,-3.65637 0.28267,-3.65637 0.0587,0 0.10645,-0.0546 0.10645,-0.1214 0,-0.0701 -0.2047,-0.16432 -0.48472,-0.22341 -0.46014,-0.0971 -0.84187,-0.41067 -0.65784,-0.54026 z m 0.69453,7.17572 c 0.0991,0.0221 0.29025,0.12017 0.49145,0.25653 0.61905,0.41943 0.94026,0.53395 1.40301,0.50081 l 0.37001,-0.0265 0.15089,0.73686 c 0.15745,0.76735 0.28587,0.96658 0.62167,0.96658 0.10972,0 0.33435,0.10291 0.49919,0.22862 0.29896,0.22793 1.04232,0.97256 1.04232,1.04404 0,0.0208 -0.10635,0.0572 -0.23616,0.0812 -0.24242,0.0446 -0.34084,0.4189 -0.13385,0.50899 0.0562,0.0244 0.0757,0.14325 0.0429,0.26398 -0.0328,0.12072 0.0633,0.49548 0.21343,0.83255 0.28246,0.63425 0.27659,0.73564 -0.0372,0.65086 -0.26684,-0.0721 -0.55663,-0.55048 -0.55863,-0.92192 -0.002,-0.48963 -0.1139,-0.69404 -0.37878,-0.69404 -0.17756,0 -0.21447,0.0356 -0.14987,0.14558 0.047,0.08 0.17769,0.35107 0.28991,0.60244 0.11222,0.25137 0.31953,0.63483 0.46095,0.85192 0.14142,0.21709 0.28925,0.50802 0.32867,0.64676 0.0394,0.13873 0.16484,0.28738 0.27853,0.33026 0.11368,0.0429 0.24177,0.20964 0.28473,0.37084 0.0719,0.27004 0.11085,0.29304 0.49662,0.29304 h 0.41909 l -0.0765,-0.39468 c -0.0419,-0.2171 -0.0952,-0.54436 -0.11885,-0.72718 -0.0237,-0.18281 -0.0974,-0.50066 -0.16382,-0.70632 -0.0665,-0.20568 -0.15041,-0.55598 -0.18655,-0.77857 -0.0573,-0.35288 -0.0435,-0.39126 0.11059,-0.30122 0.0972,0.0568 0.17673,0.16594 0.17673,0.24276 0,0.0769 0.18151,0.51895 0.40308,0.98224 0.34544,0.72231 0.65939,1.73101 0.65939,2.11936 0,0.087 -0.22845,0.11355 -0.97359,0.11316 -0.83782,-5.2e-4 -1.0956,0.0365 -1.84691,0.26659 -0.48018,0.14703 -0.89851,0.2494 -0.92966,0.2275 -0.0312,-0.022 0.004,-0.21192 0.0796,-0.42186 0.26705,-0.74685 0.27476,-1.73403 0.0176,-2.27164 -0.1496,-0.31271 -0.25695,-0.81618 -0.2961,-1.38846 -0.0748,-1.09321 -0.11278,-1.18609 -0.51367,-1.2477 -0.62458,-0.096 -0.61323,-0.0832 -0.53485,-0.61137 0.0732,-0.49285 0.0695,-0.50051 -0.26717,-0.59091 -0.59041,-0.15858 -1.39688,-0.19402 -1.53634,-0.0677 -0.19962,0.18071 -1.94596,3.30936 -2.01538,3.61057 -0.0432,0.18732 0.0107,0.35956 0.17157,0.54846 0.47098,0.55299 0.69988,2.36505 0.37207,2.94594 -0.0738,0.1307 -0.17647,0.83593 -0.22789,1.56718 -0.0811,1.15349 -0.14302,1.43975 -0.46819,2.16069 -0.36366,0.80622 -0.37273,0.8621 -0.30076,1.86988 0.0864,1.21012 0.32557,2.38017 0.71262,3.48995 0.35207,1.0095 0.72169,2.65949 0.8971,4.0045 0.14907,1.14309 0.18646,1.19157 0.82476,1.06264 0.49621,-0.10021 0.81648,-0.31263 0.81648,-0.54098 0,-0.10143 0.0342,-0.30464 0.076,-0.45167 0.074,-0.26059 0.0883,-0.26582 0.56069,-0.21409 0.92528,0.10129 0.90393,0.10588 1.08986,-0.24573 0.37267,-0.70472 0.72702,-2.10834 0.56172,-2.22474 -0.0285,-0.0198 -0.18507,-0.0184 -0.3483,0.004 -0.19861,0.0268 -0.35213,0.13285 -0.46353,0.32057 -0.0916,0.1543 -0.21428,0.28075 -0.27285,0.28075 -0.0586,0 -0.14083,-0.28993 -0.18294,-0.64415 -0.0421,-0.3542 -0.18054,-0.90581 -0.30747,-1.22574 l -0.231,-0.58159 0.0724,1.3918 c 0.0498,0.96194 0.0332,1.39181 -0.0537,1.39181 -0.0692,0 -0.15127,-0.21491 -0.18242,-0.4777 -0.0311,-0.2628 -0.12632,-0.77709 -0.21135,-1.14271 -0.30807,-1.32465 -0.13553,-8.18484 0.24339,-9.68083 0.29966,-1.18305 0.66368,-2.25581 0.7705,-2.26978 0.071,-0.009 0.12982,0.32954 0.14779,0.85079 0.0231,0.67022 0.0743,0.90078 0.22635,1.01909 0.18669,0.14526 0.17195,0.1598 -0.29766,0.28968 -0.57686,0.15956 -0.56034,0.12395 -0.72244,1.54819 -0.16368,1.43809 -0.14854,2.26178 0.0594,3.29855 0.0963,0.4799 0.23061,1.3961 0.29869,2.03596 0.14699,1.38142 0.44035,2.1649 0.96945,2.58924 l 0.37466,0.30048 1.2423,-0.0518 c 0.68314,-0.0286 1.48094,-0.0735 1.77301,-0.0998 0.43795,-0.0394 0.49232,-0.0306 0.31006,0.0503 -0.20751,0.0921 -0.21547,0.18238 -0.13332,1.48005 0.0481,0.76012 0.12075,1.54677 0.16174,1.74775 0.0723,0.35455 0.0921,0.36874 0.66456,0.48553 0.86291,0.17603 0.88522,0.20066 0.88522,0.98037 0,0.76057 0.0618,0.95245 0.30748,0.95245 0.28876,0 0.17837,0.16362 -0.33693,0.4993 -0.67963,0.44274 -1.40736,0.70874 -2.36782,0.86532 -0.92106,0.15022 -0.97231,0.14993 -2.32337,0.005 -1.60728,-0.17284 -3.30989,-0.43888 -3.49229,-0.54547 -0.0927,-0.0542 -0.3407,-0.15879 -0.55087,-0.23271 l -0.38189,-0.13448 -0.14263,-0.95579 c -0.12838,-0.86057 -0.39893,-2.49916 -0.57619,-3.48994 -0.0368,-0.20566 -0.0889,-0.57969 -0.11575,-0.83106 -0.0972,-0.90887 -0.41853,-2.87714 -0.54261,-3.32388 -0.0698,-0.25128 -0.25717,-0.66226 -0.41599,-0.91371 -0.33632,-0.53244 -0.31852,-0.75582 0.12971,-1.661 0.39269,-0.79305 0.85677,-2.12239 1.002,-2.86925 0.24074,-1.23803 0.12164,-4.18347 -0.17932,-4.43568 -0.0719,-0.0603 -0.39675,0.17515 -0.33641,0.24388 0.13847,0.15774 -0.19283,0.15171 -0.58394,-0.0108 -0.48464,-0.20135 -0.50544,-0.24657 -0.19999,-0.44121 0.12237,-0.078 0.2543,-0.25321 0.293,-0.38948 0.0387,-0.13627 0.34229,-0.66728 0.67438,-1.17995 0.33209,-0.51266 0.73139,-1.12938 0.88729,-1.37057 0.1559,-0.24119 0.28318,-0.4928 0.28318,-0.55889 0,-0.0661 0.1012,-0.28 0.2248,-0.47546 0.4567,-0.72224 0.59368,-1.03447 0.71778,-1.63495 0.0699,-0.33806 0.1584,-0.65006 0.19637,-0.69329 0.01,-0.0108 0.0321,-0.0121 0.0651,-0.005 z m -10.948163,6.36475 c 0.851236,-0.0108 1.963386,0.0243 3.436999,0.10048 1.554292,0.0805 2.945244,0.17778 3.091284,0.21634 0.28936,0.0764 0.32575,0.24783 0.15968,0.751 -0.055,0.16676 -0.0592,0.34958 -0.01,0.40585 0.0825,0.094 0.35192,-0.57781 0.35192,-0.87722 0,-0.0885 0.0971,-0.10588 0.38344,-0.069 0.61596,0.0795 0.91467,0.25154 0.91467,0.52611 0,0.23428 -0.0436,0.25372 -1.15084,0.51123 -1.072334,0.24936 -1.274903,0.26889 -2.979658,0.28669 -1.958876,0.0205 -2.833499,-0.0277 -4.601786,-0.25319 -1.266155,-0.1615 -1.416564,-0.20574 -2.041219,-0.59909 l -0.447518,-0.28186 0.338481,-0.23867 c 0.440526,-0.3102 1.135638,-0.45978 2.554366,-0.47883 z m -3.079399,1.07979 c 0.05429,-0.0236 0.266473,0.0679 0.471806,0.20292 0.765982,0.50388 2.019511,0.85758 3.913456,1.10437 1.364633,0.1778 4.617649,0.1371 5.95416,-0.0745 1.33977,-0.21204 1.24939,-0.20996 1.27176,-0.0313 0.17116,1.36569 0.16652,1.96341 -0.0191,2.68679 -0.36208,1.41088 -0.98419,3.0063 -1.14515,2.93627 -0.16151,-0.0703 -0.11841,-0.55185 0.0873,-0.97702 0.17387,-0.35907 0.17369,-0.40706 -0.003,-0.59648 -0.10543,-0.11329 -0.24797,-0.20628 -0.31678,-0.20628 -0.26527,0 -0.01,-0.20969 0.30334,-0.24909 0.18162,-0.0228 0.40166,-0.11789 0.48938,-0.21111 0.13934,-0.14808 0.12627,-0.20305 -0.10387,-0.43491 -0.14488,-0.14595 -0.32317,-0.26587 -0.39636,-0.26659 -0.27941,-0.003 -0.3722,-0.23852 -0.43977,-1.11701 -0.0964,-1.25307 -0.26925,-1.28921 -0.3669,-0.0767 -0.0436,0.54138 -0.10075,1.03176 -0.12712,1.08947 -0.0374,0.0817 -0.485158,0.0936 -2.027787,0.0532 -1.713576,-0.0447 -2.132638,-0.0296 -3.114539,0.11424 -0.62394,0.0915 -1.539028,0.29223 -2.033467,0.44569 -0.804227,0.24961 -0.899237,0.30306 -0.901237,0.50749 -0.0017,0.16871 0.05604,0.22826 0.219624,0.22826 0.121867,0 0.283312,0.0529 0.359152,0.11734 0.405509,0.34406 1.809552,0.58185 2.750736,0.46617 0.342023,-0.0421 1.099986,-0.11748 1.684135,-0.16755 0.606192,-0.0521 1.480781,-0.20173 2.038119,-0.34852 0.537071,-0.14145 1.013534,-0.23112 1.058334,-0.19956 0.17442,0.12287 -0.198297,0.3406 -0.98082,0.57339 -0.449715,0.1338 -0.846828,0.27543 -0.882116,0.31463 -0.106513,0.11828 -1.623767,0.23763 -3.036508,0.23979 -1.284327,9e-4 -1.649401,-0.0477 -2.787943,-0.37643 -0.209029,-0.0605 -0.218747,-0.0351 -0.142627,0.36898 0.112403,0.59664 0.36056,0.92338 0.912606,1.20191 0.258365,0.1303 0.595012,0.37676 0.748274,0.54772 0.321474,0.35859 0.614711,0.45227 1.821595,0.58159 1.175813,0.12598 1.339055,0.19619 0.861446,0.3701 -0.38939,0.1418 -0.670706,0.41645 -0.558106,0.54473 0.201214,0.22925 -0.287344,0.10601 -1.481563,-0.37382 -1.545081,-0.6208 -2.078841,-0.95532 -2.564701,-1.60739 -0.392447,-0.52669 -0.527606,-0.90515 -0.791683,-2.21133 -0.101647,-0.50274 -0.295238,-1.34429 -0.429948,-1.86988 -0.261556,-1.0204 -0.458616,-3.22841 -0.294556,-3.29967 z m 20.042182,0.88989 c 0.3625,0 0.68781,0.15682 0.68781,0.33138 0,0.0876 0.0813,0.37613 0.18036,0.64116 0.14517,0.38847 0.17768,1.01347 0.16898,3.2241 -0.006,1.50822 5.7e-4,3.1721 0.0145,3.6977 0.0137,0.52558 0.0173,1.22537 0.008,1.55489 l -0.017,0.59908 -0.44287,0.0808 c -0.24339,0.0446 -0.90322,0.13963 -1.46658,0.21111 -1.23827,0.15718 -1.56457,0.16201 -1.72392,0.026 -0.269,-0.22955 -0.60122,-1.15173 -0.73122,-2.02999 -0.0756,-0.51094 -0.21596,-1.14663 -0.31161,-1.41266 -0.10671,-0.29683 -0.20051,-1.11173 -0.24288,-2.1093 -0.0617,-1.4517 -0.0412,-1.72711 0.18862,-2.57584 0.35519,-1.3118 0.45817,-1.45455 1.15704,-1.60069 0.31171,-0.0652 0.95693,-0.23549 1.4335,-0.37829 0.47657,-0.14281 0.97033,-0.25954 1.0976,-0.25954 z m 12.861235,0.74803 c -1.19438,0 -3.1731,0.362 -4.31912,0.7901 -0.4272,0.15959 -0.84781,0.29005 -0.93483,0.29005 -0.23139,0 -1.15739,1.10014 -1.58853,1.8874 -0.20518,0.37464 -0.53924,1.12229 -0.7426,1.66138 -0.20335,0.53906 -0.47702,1.24165 -0.607708,1.56158 -0.16808,0.41145 -0.2409,0.84951 -0.2496,1.49606 -0.0106,0.78914 0.0247,0.97055 0.2589,1.32926 0.797888,1.22185 2.873418,2.56225 4.507218,2.91093 0.35698,0.0762 0.86124,0.18487 1.12087,0.24127 0.25961,0.0564 0.46191,0.1368 0.44958,0.17873 -0.0123,0.0419 0.0776,0.10237 0.19947,0.13407 0.42943,0.11181 0.87092,1.86143 1.05523,4.18025 0.069,0.86839 0.18119,2.00918 0.24909,2.53525 0.0679,0.52611 0.10777,1.23248 0.0884,1.56979 -0.0345,0.6002 -0.0425,0.61396 -0.35864,0.63744 -0.48866,0.0362 -2.50255,0.73444 -3.08043,1.06788 -0.59684,0.34438 -1.13998,0.99798 -1.13998,1.37207 0,0.49211 0.52282,0.97034 1.3162,1.20378 0.23533,0.0692 0.9102,0.19983 1.49965,0.29041 0.58944,0.0906 1.19123,0.20983 1.33687,0.26473 0.14564,0.0548 0.53206,0.16931 0.85886,0.25469 0.58374,0.15249 0.83742,0.156 2.18746,0.0283 0.73115,-0.0692 1.74726,-0.29559 2.24224,-0.49931 0.22717,-0.0935 0.56597,-0.22452 0.75293,-0.29154 0.48813,-0.17494 1.31629,-0.70654 1.59421,-1.02319 0.13106,-0.14932 0.2726,-0.42169 0.3142,-0.60505 0.0643,-0.28313 0.0288,-0.37261 -0.23565,-0.59388 -0.44174,-0.36966 -2.62055,-0.93908 -4.55011,-1.18926 -0.42188,-0.0547 -0.8303,-0.14134 -0.90743,-0.19248 -0.24076,-0.15978 -0.41763,-2.05931 -0.32763,-3.51676 0.0561,-0.90899 0.0357,-1.61074 -0.0625,-2.16068 -0.14052,-0.78658 -0.12452,-1.05339 0.16639,-2.81711 0.0234,-0.14189 0.10111,-0.33567 0.17312,-0.43042 0.072,-0.0947 0.0999,-0.22903 0.062,-0.29863 -0.0782,-0.14351 0.47163,-0.33506 1.39785,-0.48702 0.30829,-0.0506 0.56017,-0.12288 0.56017,-0.16084 0,-0.038 0.33495,-0.3062 0.74414,-0.59574 0.48207,-0.34114 0.91406,-0.75764 1.2268,-1.18368 0.80196,-1.09251 0.79595,-1.69886 -0.0403,-4.06482 -1.18829,-3.36197 -1.82747,-4.30236 -3.43338,-5.05413 -0.44375,-0.20772 -0.90599,-0.45479 -1.02733,-0.54921 -0.16119,-0.12543 -0.36505,-0.17164 -0.75603,-0.17164 z m -2.4598,0.68213 c 0.17555,-1.1e-4 0.36068,0.0173 0.58963,0.0525 0.33699,0.0518 1.03776,0.0875 1.55701,0.0793 1.13606,-0.018 1.43592,0.0754 1.54409,0.48143 0.0708,0.2657 0.0323,0.32986 -0.37001,0.61995 -0.63118,0.45516 -1.25533,0.63471 -2.56573,0.7376 -2.20473,0.1731 -3.50722,0.061 -3.50522,-0.3016 4.4e-4,-0.0822 0.1067,-0.26166 0.23565,-0.39878 0.12896,-0.13712 0.2347,-0.36969 0.23513,-0.51717 8.7e-4,-0.29869 0.32464,-0.50194 0.9033,-0.56708 0.18517,-0.0209 0.5653,-0.0806 0.84491,-0.13299 0.18996,-0.0354 0.35569,-0.0531 0.53124,-0.0532 z m 4.68395,0.55143 0.27905,0.23495 c 0.61521,0.51813 1.24495,1.67519 1.67639,3.07961 0.35262,1.14795 0.36759,1.39382 0.0801,1.30803 -0.92759,-0.27678 -1.20635,-0.30152 -3.39153,-0.29936 -2.46159,0.003 -3.90824,0.12233 -5.72471,0.47362 -1.33324,0.25779 -1.80744,0.44517 -2.01384,0.79606 -0.13875,0.23589 -0.12948,0.27393 0.094,0.40138 0.13578,0.0775 0.76906,0.24662 1.40767,0.37606 1.08517,0.22004 1.28279,0.23421 3.01894,0.21448 1.40495,-0.0159 2.08046,-0.0621 2.77296,-0.18879 0.50359,-0.0921 1.25466,-0.2212 1.66863,-0.2867 0.41396,-0.0655 0.84859,-0.15503 0.96583,-0.1992 0.11723,-0.0442 0.28887,-0.0803 0.38137,-0.0803 0.0925,0 0.37134,-0.13488 0.6196,-0.29974 0.42605,-0.28294 0.46007,-0.29123 0.60978,-0.14707 0.25316,0.2438 0.13187,0.39791 -0.35708,0.45389 -0.246,0.0282 -0.50831,0.0941 -0.58291,0.1467 -0.0746,0.0524 -0.26347,0.0953 -0.42013,0.0953 -0.15668,0 -0.47816,0.072 -0.71417,0.15973 -0.51932,0.19312 -1.09476,0.33554 -1.72702,0.42745 -0.25962,0.0378 -0.71097,0.111 -1.00304,0.16272 -0.82661,0.14614 -3.57487,0.16359 -4.66173,0.0298 -1.95409,-0.24056 -1.902,-0.24022 -2.11719,-0.009 -0.18281,0.19648 -0.17989,0.24108 0.0553,0.73723 0.52534,1.10827 1.37794,1.77346 2.97553,2.32228 0.90475,0.31084 1.0253,0.33133 1.68259,0.28521 0.38943,-0.0274 0.99231,-0.0108 1.33945,0.0358 0.79552,0.1079 2.02042,-0.0562 2.9931,-0.40102 0.68566,-0.24302 0.80098,-0.24643 0.80098,-0.0241 0,0.0688 0.0855,0.1915 0.19017,0.27292 0.17773,0.13826 0.16825,0.15147 -0.14728,0.20032 -0.18578,0.0287 -0.76285,0.12786 -1.28209,0.22004 -0.51924,0.0921 -1.15631,0.19985 -1.41593,0.23905 -0.47867,0.0723 -1.69305,0.0868 -2.12442,0.0258 -0.12982,-0.0184 -0.55469,-0.0769 -0.94413,-0.12962 -1.37037,-0.18554 -2.67688,-0.74626 -3.70417,-1.58987 -1.02753,-0.84385 -1.11408,-1.16417 -0.89503,-3.30229 0.22521,-2.19834 0.32183,-2.52547 0.94567,-3.19429 0.28204,-0.30237 0.57332,-0.67835 0.64699,-0.83553 0.0737,-0.15719 0.19624,-0.28519 0.27234,-0.28448 0.0761,8.8e-4 0.36774,0.11141 0.64854,0.24539 0.65367,0.31191 1.15625,0.36075 3.29231,0.31983 1.92461,-0.0368 2.14067,-0.0822 2.99775,-0.62739 0.58217,-0.37036 0.81132,-0.67083 0.81132,-1.0634 z m -16.150955,0.15489 c -0.0478,-9e-4 -0.11129,0.002 -0.19378,0.008 -0.68315,0.0477 -0.96108,0.18041 -1.22008,0.5827 -0.73882,1.14757 -0.91898,1.95778 -0.50074,2.25229 0.2714,0.19107 0.78549,0.23199 0.87023,0.0692 0.0433,-0.0831 0.0857,-0.0831 0.21084,0 0.086,0.057 0.18549,0.10358 0.22117,0.10344 0.0357,-1.2e-4 0.0674,-0.28968 0.0713,-0.64376 0.005,-0.46841 0.0902,-0.81364 0.31316,-1.26707 0.16855,-0.34278 0.3247,-0.73529 0.34726,-0.8724 0.0286,-0.17425 0.024,-0.2265 -0.11937,-0.23196 z m 1.34876,1.02133 c -0.15763,0 -0.36843,0.0578 -0.46871,0.12839 -0.21195,0.14925 -0.4669,0.75303 -0.36638,0.86757 0.0377,0.043 -0.0284,0.14641 -0.14676,0.22972 -0.11832,0.0833 -0.3368,0.29012 -0.48576,0.45984 -0.14898,0.16973 -0.22252,0.30868 -0.1633,0.30868 0.0592,0 0.17186,-0.0843 0.25011,-0.1873 0.16438,-0.21627 0.7577,-0.47734 1.08469,-0.47734 0.23308,0 0.42426,-0.31965 0.31316,-0.5235 -0.0324,-0.0595 0.0132,-0.19968 0.10129,-0.31165 0.25239,-0.32093 0.21073,-0.49447 -0.11834,-0.49447 z m -13.4183,0.29042 c 0.08079,0.004 0.06877,0.0162 -0.04289,0.0376 -0.358794,0.0688 -1.438092,0.11384 -1.347722,0.0562 0.02705,-0.0173 0.421058,-0.0523 0.875399,-0.0778 0.260551,-0.0147 0.434427,-0.0197 0.515213,-0.0161 z m 6.60735,1.53777 c 0.0649,0 0.15443,0.20307 0.19844,0.45128 0.08,0.45104 0.0386,0.73264 -0.0858,0.58344 -0.13582,-0.16288 -0.23079,-1.03472 -0.11266,-1.03472 z m -3.89589,0.27441 c 0.009,0.003 0.0145,0.009 0.015,0.0212 0.002,0.0484 -0.0742,0.16074 -0.1695,0.24946 -0.0953,0.0888 -0.175247,0.12181 -0.177247,0.0734 -0.0021,-0.0484 0.07421,-0.16074 0.169497,-0.24946 0.0715,-0.0665 0.13453,-0.10155 0.16226,-0.0945 z m 0.36174,0.47734 c 0.0591,7.2e-4 0.12931,0.0436 0.17518,0.12773 0.15432,0.28319 0.058,0.59889 -0.35863,1.17213 -0.23886,0.32863 -0.547304,0.69734 -0.685233,0.81915 -0.224426,0.19818 -0.267251,0.2076 -0.406177,0.0897 -0.08538,-0.0724 -0.415095,-0.15611 -0.732772,-0.18579 -0.317684,-0.0296 -0.577742,-0.0777 -0.577742,-0.10655 0,-0.0868 0.39672,-0.23382 0.798917,-0.296 0.566541,-0.0877 1.679487,-1.07911 1.679487,-1.49644 0,-0.0835 0.0478,-0.12476 0.10697,-0.12395 z m -2.441714,2.26195 c 0.06487,-0.004 0.121192,-3.7e-4 0.165365,0.0121 0.289243,0.0781 0.175531,0.21346 -0.391191,0.46654 -0.583191,0.26044 -1.097607,0.32427 -1.097607,0.1359 0,-0.20863 0.86935,-0.58675 1.323433,-0.61398 z m 30.104099,0.0882 c 0.0953,-0.008 0.19896,0.0905 0.19896,0.22675 0,0.0887 -0.0474,0.16123 -0.10542,0.16123 -0.13857,0 -0.26811,-0.24282 -0.18191,-0.34105 0.0257,-0.0293 0.0566,-0.0441 0.0884,-0.0469 z m -30.041054,1.15091 c 0.185972,-0.0186 0.265617,0.0158 0.265617,0.11464 0,0.18041 0.591532,2.04691 0.681612,2.15062 0.07352,0.0847 0.106488,0.48723 0.261483,3.20399 0.05606,0.98264 0.191404,2.16088 0.300757,2.61792 0.10936,0.45704 0.215058,1.08218 0.235128,1.38919 0.04966,0.75935 0.09355,0.82552 0.692462,1.04889 0.28708,0.1071 0.63376,0.27878 0.7705,0.38127 l 0.24856,0.18617 -0.64647,0.36675 c -0.35573,0.20178 -0.82162,0.41163 -1.03508,0.46617 -0.396388,0.1013 -1.096663,0.12895 -1.361674,0.0536 -0.214725,-0.061 -0.18446,-0.15871 0.164331,-0.52985 l 0.312126,-0.33175 -0.08113,-2.01399 c -0.173772,-4.33094 -0.331193,-5.77277 -0.850078,-7.78895 -0.288402,-1.12052 -0.283073,-1.28222 0.04186,-1.31472 z m 27.887184,0.15116 c 0.0687,0 0.0918,0.0373 0.0517,0.0831 -0.0401,0.0457 -0.0965,0.0833 -0.12506,0.0833 -0.0286,0 -0.0517,-0.0378 -0.0517,-0.0833 0,-0.0457 0.0564,-0.0831 0.12506,-0.0831 z m 2.14509,0 c 0.16107,0 0.005,0.27319 -0.55914,0.97888 -0.43449,0.5433 -1.2392,1.24418 -1.2392,1.07942 0,-0.0277 0.25238,-0.30865 0.56069,-0.62406 0.3083,-0.31539 0.68881,-0.76712 0.84594,-1.0038 0.15713,-0.23672 0.33351,-0.43044 0.39171,-0.43044 z m -10.38232,0.008 v 3.7e-4 c 0.0419,3.3e-4 0.0923,0.008 0.14883,0.0231 0.10426,0.0282 0.15615,0.0888 0.11575,0.13474 -0.0957,0.10884 -0.26116,0.10668 -0.35915,-0.005 -0.0815,-0.0927 -0.0311,-0.154 0.0946,-0.15304 z m 7.88273,0.15898 c 0.0688,0 0.0923,0.0373 0.0522,0.0831 -0.0401,0.0457 -0.0965,0.083 -0.12506,0.083 -0.0287,0 -0.0522,-0.0373 -0.0522,-0.083 0,-0.0457 0.0564,-0.0831 0.12506,-0.0831 z m -1.38958,0.44905 c 0.17336,-0.004 0.32091,0.0139 0.32091,0.0573 0,0.0395 -0.14604,0.0945 -0.32453,0.12206 -0.17849,0.0275 -0.39119,0.0643 -0.47232,0.0819 -0.0811,0.0175 -0.14728,-0.003 -0.14728,-0.0436 0,-0.0416 0.0661,-0.10493 0.14728,-0.1411 0.10311,-0.046 0.30257,-0.0726 0.47594,-0.0767 z m -6.85747,0.14409 c 0.0428,-0.0286 0.15878,0.0559 0.40308,0.28149 0.17461,0.1612 0.29028,0.31228 0.25683,0.33585 -0.0726,0.0512 -0.68058,-0.44209 -0.68058,-0.55218 0,-0.0336 0.006,-0.0556 0.0207,-0.0652 z m 5.63429,2.89679 c 0.18931,0 0.3687,0.0468 0.39894,0.10386 0.0302,0.0572 0.0274,0.61464 -0.007,1.23876 -0.0483,0.88436 -0.0159,1.30099 0.14624,1.88888 0.11443,0.41489 0.18009,0.8292 0.14625,0.92042 -0.0339,0.0912 0.007,0.88639 0.091,1.76712 0.084,0.88073 0.1604,2.12418 0.1695,2.7635 0.0174,1.23524 0.18758,1.71573 0.62838,1.77309 0.23601,0.0307 0.2648,-0.16577 0.0982,-0.67097 -0.11879,-0.36021 -0.0818,-0.37784 0.28009,-0.13258 0.22945,0.15552 0.41074,0.18076 1.37407,0.19027 0.93466,0.009 1.29514,0.0562 2.28927,0.29862 1.0257,0.25008 1.18552,0.31447 1.22111,0.49186 0.055,0.27443 -0.16354,0.76354 -0.4594,1.0284 -0.19431,0.17398 -0.30899,0.20631 -0.58704,0.16718 -0.25112,-0.0353 -0.71126,0.0556 -1.68414,0.33286 -0.7363,0.20985 -1.78642,0.45721 -2.33371,0.54959 v 3.6e-4 c -0.92701,0.15645 -1.8879,0.21901 -2.01279,0.1311 -0.0297,-0.0209 -0.60941,-0.13379 -1.2883,-0.25096 -2.57942,-0.44525 -2.48415,-0.4016 -2.1301,-0.97777 0.18325,-0.2982 1.61747,-1.39218 1.82521,-1.39218 0.0357,0 0.32932,-0.0737 0.65268,-0.16346 l 0.58807,-0.16307 0.18811,0.26585 c 0.11858,0.16741 0.14297,0.27674 0.0656,0.2949 -0.38354,0.0899 0.2573,0.83986 0.90175,1.0552 0.49473,0.16531 1.08924,0.11154 1.39475,-0.12625 0.19198,-0.14933 0.19286,-0.16702 0.0145,-0.21521 -0.107,-0.0293 -0.41948,-0.0299 -0.69453,-9e-4 l -0.50023,0.0514 -0.19637,-0.43824 c -0.15616,-0.34814 -0.1842,-0.64375 -0.13488,-1.43426 0.0436,-0.69869 0.002,-1.30516 -0.14004,-2.03409 -0.1378,-0.70825 -0.21407,-1.76607 -0.2403,-3.32424 -0.0272,-1.61768 -0.0926,-2.49137 -0.22376,-2.99138 -0.25515,-0.97296 -0.25128,-0.99712 0.15865,-0.99712 z m -14.800645,0.96175 c -0.4359,0.004 -0.88917,0.0674 -1.17977,0.16496 -0.58469,0.19616 -1.98923,1.16821 -1.87534,1.29797 0.0465,0.053 0.0298,0.0709 -0.0382,0.0414 -0.0663,-0.0288 -0.21803,0.0236 -0.33745,0.11653 -0.15158,0.11788 -0.30166,0.15418 -0.49764,0.1195 -0.6792,-0.12004 -0.96522,0.19456 -0.46716,0.51382 0.55704,0.35707 1.58863,0.77182 2.21227,0.88915 0.90532,0.17037 1.06247,0.16432 1.06247,-0.0391 v -0.17165 l 0.33073,0.1657 c 0.49616,0.24878 1.56604,0.23172 2.01124,-0.032 0.18379,-0.10884 0.63513,-0.27703 1.00252,-0.37383 l 0.66766,-0.17611 -0.0765,-0.47176 c -0.0486,-0.29983 -0.14551,-0.50062 -0.26561,-0.55068 -0.1596,-0.0665 -0.14325,-0.0865 0.10438,-0.12813 0.28954,-0.0487 0.28587,-0.0548 -0.29094,-0.48888 -0.86493,-0.65114 -1.49353,-0.88464 -2.36264,-0.87686 z m 0.65319,0.44905 c 0.32738,0.002 0.63621,0.0724 0.89917,0.21372 0.21706,0.11653 0.3948,0.24587 0.3948,0.28709 0,0.0905 -0.76102,0.24761 -1.20199,0.24833 -0.27161,4e-4 -0.31409,0.0332 -0.29507,0.22601 0.0145,0.14733 -0.0392,0.22949 -0.15503,0.23757 -0.51671,0.0361 -1.53427,-0.16933 -1.53427,-0.30981 0,-0.17422 0.4201,-0.50576 0.88263,-0.69664 0.33644,-0.13883 0.68238,-0.20759 1.00976,-0.20627 z m -8.16126,4.40588 c 0.036,0 0.27977,0.0541 0.54157,0.11991 0.26179,0.0658 0.77856,0.14319 1.14825,0.17165 0.5048,0.0389 0.85316,0.13433 1.39991,0.38312 0.75788,0.34494 1.86579,1.09775 2.24845,1.52771 0.25316,0.28447 0.29444,0.86023 0.0755,1.05485 -0.21078,0.18729 -1.91124,0.70296 -2.80862,0.85189 -1.4292,0.23722 -3.38341,0.0964 -6.130889,-0.44196 -1.460598,-0.28622 -3.568537,-0.96614 -4.001306,-1.29052 -0.146561,-0.10979 -0.294045,-0.34627 -0.328145,-0.52538 -0.05532,-0.29042 -0.02071,-0.35007 0.320394,-0.55217 0.511911,-0.30333 1.070742,-0.49664 2.054138,-0.71005 0.667208,-0.14481 0.97846,-0.16738 1.682068,-0.12247 0.47473,0.0302 0.862996,0.0871 0.862996,0.12665 0,0.0394 0.106352,0.0718 0.236162,0.0718 0.183549,0 0.235644,0.0551 0.235644,0.2491 0,0.13711 -0.05364,0.24947 -0.119372,0.24947 -0.06573,0 -0.24282,0.19643 -0.393775,0.43638 -0.150948,0.23994 -0.362914,0.48755 -0.470772,0.55031 -0.573119,0.33333 0.08272,0.56165 1.830896,0.63745 1.309461,0.0567 1.398311,0.0499 1.828311,-0.13366 0.36818,-0.15725 1.21689,-0.61786 1.8681,-1.01426 0.15617,-0.0951 -0.25725,-0.31016 -0.59634,-0.31016 -0.14094,0 -0.45377,-0.11087 -0.69557,-0.24611 -0.24178,-0.13529 -0.54164,-0.26858 -0.66611,-0.2964 -0.18259,-0.0408 -0.22264,-0.12179 -0.2067,-0.41887 0.0109,-0.20251 0.0493,-0.36824 0.0853,-0.36824 z m 15.375285,8.3378 c -0.053,0.004 -0.10085,0.0195 -0.15452,0.0432 -0.0178,0.008 -0.0881,0.0108 -0.13436,0.0161 0.42369,0.10062 0.79635,0.22705 1.12087,0.38836 0.0187,-0.0277 0.0814,-0.0897 0.0734,-0.0939 -0.54183,-0.27679 -0.74642,-0.36615 -0.90537,-0.35373 z m -15.029565,1.84084 c -0.19148,0.0258 -0.38327,0.0495 -0.57568,0.0709 0.18152,0.044 0.36172,0.094 0.54105,0.14707 0.0134,-0.0762 0.0214,-0.14525 0.0346,-0.21781 z m -17.414444,2.138 c -0.09418,0.20333 -0.179728,0.37959 -0.255282,0.52352 0.08386,-0.0249 0.168656,-0.0472 0.255282,-0.0636 v -0.18692 z m 32.947329,2.1942 c -0.0196,0.009 -0.0378,0.0185 -0.0579,0.0271 0.003,-7.1e-4 0.0475,-0.003 0.0486,-0.003 0.002,-9.1e-4 0.007,-0.0213 0.009,-0.0241 z" /></g><text
       xml:space="preserve"
       transform="scale(0.26458333)"
       id="text16"
       style="fill:#241c1c;white-space:pre;shape-inside:url(#rect16)" /><g
       id="g17"
       transform="translate(-14.142857,-37.841698)"><text
         xml:space="preserve"
         transform="scale(0.26458333)"
         id="text17"
         style="font-size:96px;white-space:pre;shape-inside:url(#rect17);fill:#241c1c"><tspan
           x="101.12695"
           y="679.90402"
           id="tspan4"><tspan
             style="font-family:'Matura MT Script Capitals';-inkscape-font-specification:'Matura MT Script Capitals';fill:#550000"
             id="tspan3">La Dambana</tspan></tspan></text><text
         xml:space="preserve"
         transform="matrix(0.26332415,0,0,0.24279167,0.68965035,16.562497)"
         id="text17-0"
         style="font-size:96px;white-space:pre;shape-inside:url(#rect17-4);fill:#ac9393"><tspan
           x="101.12695"
           y="679.90402"
           id="tspan6"><tspan
             style="font-family:'Matura MT Script Capitals';-inkscape-font-specification:'Matura MT Script Capitals'"
             id="tspan5">La Dambana</tspan></tspan></text></g></g></svg>
